<?xml version="1.0" encoding="UTF-8"?>
<svg id="Laag_1" xmlns="http://www.w3.org/2000/svg" xmlns:xlink="http://www.w3.org/1999/xlink" viewBox="0 0 286.09 544.18">
  <defs>
    <style>
      .cls-1, .cls-2, .cls-3, .cls-4, .cls-5, .cls-6, .cls-7, .cls-8, .cls-9, .cls-10, .cls-11, .cls-12, .cls-13 {
        stroke-miterlimit: 10;
      }

      .cls-1, .cls-2, .cls-3, .cls-4, .cls-5, .cls-7, .cls-9, .cls-10, .cls-11, .cls-12, .cls-13 {
        stroke: #1d1e1c;
      }

      .cls-1, .cls-6, .cls-11 {
        stroke-width: .5px;
      }

      .cls-1, .cls-14, .cls-15, .cls-13 {
        fill: #1d1e1c;
      }

      .cls-16 {
        letter-spacing: -.06em;
      }

      .cls-2, .cls-4, .cls-10, .cls-13 {
        stroke-width: .75px;
      }

      .cls-2, .cls-9, .cls-11 {
        fill: none;
      }

      .cls-3 {
        fill: #28509c;
      }

      .cls-4 {
        fill: #90a477;
      }

      .cls-5 {
        fill: url(#Naamloos_verloop_2);
      }

      .cls-5, .cls-12 {
        stroke-width: 2px;
      }

      .cls-6 {
        stroke: #fff;
      }

      .cls-6, .cls-7 {
        fill: #fff;
      }

      .cls-7 {
        stroke-width: 3px;
      }

      .cls-14 {
        font-family: ElasticHeartRegular, 'Elastic Heart';
        font-size: 18.98px;
      }

      .cls-8 {
        fill: url(#Naamloos_verloop_3);
        stroke: #1d1d1b;
      }

      .cls-10 {
        fill: #91a478;
      }

      .cls-17 {
        fill: #1d1d1b;
      }

      .cls-12 {
        fill: url(#Naamloos_verloop_2-2);
      }
    </style>
    <linearGradient id="Naamloos_verloop_2" data-name="Naamloos verloop 2" x1="1" y1="272.09" x2="285.09" y2="272.09" gradientUnits="userSpaceOnUse">
      <stop offset="0" stop-color="#fff"/>
      <stop offset=".09" stop-color="#e9edf5"/>
      <stop offset=".54" stop-color="#8199c5"/>
      <stop offset=".85" stop-color="#4064a7"/>
      <stop offset="1" stop-color="#27509c"/>
    </linearGradient>
    <linearGradient id="Naamloos_verloop_2-2" data-name="Naamloos verloop 2" x1="93.54" y1="236.16" x2="151.49" y2="236.16" gradientTransform="translate(239.16 20.84) rotate(60.71)" xlink:href="#Naamloos_verloop_2"/>
    <linearGradient id="Naamloos_verloop_3" data-name="Naamloos verloop 3" x1="10.52" y1="525.5" x2="43.43" y2="525.5" gradientUnits="userSpaceOnUse">
      <stop offset="0" stop-color="#fff"/>
      <stop offset=".09" stop-color="#e9edf5"/>
      <stop offset=".54" stop-color="#8198c6"/>
      <stop offset=".85" stop-color="#4063a8"/>
      <stop offset="1" stop-color="#274f9d"/>
    </linearGradient>
  </defs>
  <path class="cls-5" d="M245.12,223.95c2.99-1.58,12.3-.79,12.3-5.36s3.42-4.23,3.42-4.23c-4.83-1.76,13.12-18.66,17.61-12.32,4.49,6.34,11.05,19.36,2.42,29.22s-46.18,18.4-46.18,18.4c9.33,3.97,8.28,35.38,2.58,38.02-5.7,2.64-3.37,18.75-5.7,26.93-2.33,8.19-24.6,25.09-24.6,25.09l2.07,2.11c9.06,6.07,24.35,19.81,15.02,30.1-9.32,10.3-24.86-1.85-24.86-1.85-12.43-10.83-18.13-5.02-21.24-9.24-2.47-3.36-33.38-.38-45.99.99-2.15.23-3.14,2.83-1.74,4.51,12.13,14.52,3.75,20.44-7.71,27.25-12.43,7.39-36.26-20.6-36.26-20.6-45.58-20.07-50.25,13.73-47.66,32.22s6.04,122.8,3.11,130.98c-3.78,10.55-23.68,8.07-26.42,0-4.66-13.73-19.51-153.03-12.43-185.38,6.32-28.91,27.97-26.93,27.97-26.93-16.58-18.48-10.68-45.95-11.71-80.28-1.04-34.33,46.42-100.87,46.42-100.87-5.7-15.32,8.29-35.91,8.29-35.91-2.59-11.09,6.73-30.1,8.29-35.91,1.55-5.81,8.81-7.39,7.43-17.96-1.37-10.56,1.37-17.43,1.37-17.43-5.18-22.71,5.7-33.27,9.32-34.33s2.59,3.17,8.81,5.28c6.22,2.11,3.63,3.17,6.73,7.92,3.11,4.75,17.61,19.54,18.4,19.54s16.69-.19,20.45-.53c1.71-.15,17.44,5.82,21.24,2.64,2.91-2.44,38.33-21.65,38.33-21.65,0,0,8.29,1.06-3.11,25.35-11.4,24.29-1.04,32.74,2.07,44.36,3.11,11.62-7.77,8.98-8.29,27.46,0,0,5.12,11.34,4.28,14.45,0,0,15.05,39.2,7.28,65.26s11.01,28.74,11.01,28.74l17.66,3.95Z"/>
  <path class="cls-2" d="M140.43,71.81s-12.57-42.12-28.23-42.39"/>
  <path class="cls-2" d="M173.68,73.38s10.55-15.22,24.49-18.84"/>
  <path class="cls-2" d="M170.6,80.27s9.95-12.56,24.66-13.78"/>
  <line class="cls-2" x1="169.84" y1="72.28" x2="187.14" y2="51.75"/>
  <path class="cls-2" d="M140.43,60.23s-8.66-25.73-12-27.3"/>
  <path class="cls-1" d="M142.74,91.74s-5.85-13.03-12-16.68c-3.08-1.83-9.52-.29-13.48.94-2.71.84-5.59.98-8.32.24-1.26-.34-3.99-2.23-2.45-1.33.26,1.2,21.37-5.69,27.94-1.88,0,0,7.44,6.35,8.31,18.71Z"/>
  <path class="cls-10" d="M139.56,85.63c.58,1.16-.68,6.96-.68,6.96-25.53,6.08-21.55-16.83-21.55-16.83l8.17-1.73c.55.35,6.68-3.12,14.06,11.6Z"/>
  <path class="cls-13" d="M125.78,75.1s-2.82,12.69,1.92,15.83,6.36-12.17,6.36-12.17c0,0-3.79-6.93-8.28-3.66Z"/>
  <path class="cls-6" d="M134.06,78.76c-.44-1.44-4.56,0-4.56,0-2.31,4.06,4,3.64,4,3.64l.55-3.64Z"/>
  <path class="cls-2" d="M188.18,79.99c-5.17-1-11.39-4.32-14.65-2.15-6.13,4.08-9.2,11.74-10.5,16.36-.57,2.01-.8,3.33-.8,3.33,0,0,11.89,8.01,21.64.42,0,0,5.79-4.67,5.38-14.76"/>
  <path class="cls-1" d="M163.03,94.2s7.38-11.38,13.68-13.9c3.16-1.26,9,1.15,12.54,2.9,2.42,1.19,5.12,1.75,7.79,1.47,1.23-.13,4.07-1.5,2.5-.89-.41,1.09-19.28-8.54-26.01-5.93,0,0-7.91,4.87-10.5,16.36Z"/>
  <path class="cls-4" d="M166.91,88.92c-.71,1.01-.36,6.65-.36,6.65,23.14,9.53,22.68-12.61,22.68-12.61l-7.43-2.84c-.56.25-5.84-3.93-14.89,8.81Z"/>
  <path class="cls-13" d="M181.37,81.08s.83,12.36-4.08,14.6c-4.92,2.24-4.23-12.39-4.23-12.39,0,0,4.56-5.96,8.31-2.21Z"/>
  <path class="cls-6" d="M173.06,83.29c.62-1.29,4.29.68,4.29.68,1.59,4.16-4.29,2.83-4.29,2.83v-3.51Z"/>
  <path class="cls-3" d="M147.64,108.83c.23,1.02-14.09-1.3-19.24.55-4,1.44-7.75,13.92,8.26,15.15,3.15.24,6.26-.89,8.61-3.04l4.83-4.41"/>
  <path class="cls-3" d="M160.63,107.69c-.03,2,8.2-1.39,12.71,4.09.87,1.06,1.8,2.8,1.21,4.05-1.37,2.92-4.78,8.92-12.33,8.78-6.01-.11-5.79-6.31-5.79-6.31"/>
  <path class="cls-2" d="M149.05,107.82s3.44-7.68-6.01-12.49c0,0-.03-1.41-.3-3.59-.62-5.01-2.59-13.46-8.31-18.71-3.04-2.79-8.59.32-14.12.35-13.01.07-8.97,3.53-8.11,6.89,1.43,5.61,7.02,20.36,30.84,15.06"/>
  <path class="cls-2" d="M159.64,106.95s-2.8-7.46,2.05-9.42"/>
  <path class="cls-3" d="M154.47,118.33c1.28.13,2.57-.19,3.65-.9,2.06-1.36,5.5-3.7,5.66-4.34.47-1.92-2.44-6.95-8.34-6.02h-1.94c-5.9-.92-8.81,4.11-8.34,6.02.16.64,3.61,2.98,5.66,4.34,1.08.72,2.37,1.04,3.65.9"/>
  <path class="cls-7" d="M109.64,188.81l8.75-48.49s151.83,1.32,161.41-4.9-26,81.35-26,81.35l-5.95,39.37-83.93.78s-66.46-.35-70.04,2.09,3.02-4.26,3.02-4.26l12.73-65.94Z"/>
  <path class="cls-12" d="M83.52,215.39l4.15,13.92c.59,1.98,1.59,3.79,2.88,5.38,2.53,3.09,5.59,8.18,8.68,6.41,3.88-2.22,5.24.97,5.24.97-.85-5.11,22.18,2.52,18.98,9.54s-11.06,19.12-23.6,16.29c-12.54-2.83-37.98-31.77-37.98-31.77"/>
  <path class="cls-13" d="M152.39,117.98s-.6-8.21-6.31-7.09"/>
  <path class="cls-13" d="M157.33,117.98s-.26-7.68,6.77-6.52"/>
  <path class="cls-11" d="M90.34,104.22c8.47-.82,48.24,12.26,48.24,12.26,0,0-40.93-6.8-43.62-2.62"/>
  <path class="cls-11" d="M68.14,125.38c3.14-5.89,68.77-8.31,68.77-8.31,0,0-55.54,10.25-62.46,20.96"/>
  <path class="cls-11" d="M167.58,115.74s37.29-19.19,72.54-14.3"/>
  <path class="cls-11" d="M167.58,115.74s40.86-.31,44.84,4.49"/>
  <path class="cls-11" d="M168.29,115.81s27.68-1.57,53.34,10.2"/>
  <path class="cls-11" d="M167.58,116.49s2.5.01,6.3.28c9.75.7,28.04,3.11,34.5,11.49"/>
  <path class="cls-11" d="M198.59,130.69s-26.43-13.3-31.37-13.61"/>
  <path class="cls-9" d="M153.75,118.7c.06,6.36-11.4,9.57-12.27,8.85"/>
  <path class="cls-9" d="M153.75,118.7c.71,8.85,11.86,10.11,10.07,9.56"/>
  <path class="cls-15" d="M116.27,382.72s5.49,10.13,8.74,8.32"/>
  <path class="cls-15" d="M123.79,377s4.91,10.43,8.25,8.82"/>
  <path class="cls-15" d="M114.29,251.47s5.17-7.48,2.76-9.1"/>
  <text class="cls-14" transform="translate(123.43 206.16) scale(.64 1)"><tspan class="cls-16" x="0" y="0">W</tspan><tspan x="16.62" y="0">elkom in mijn leven</tspan></text>
  <path class="cls-17" d="M212.12,365.62s5.26,10.36,8.65,8.67"/>
  <path class="cls-17" d="M217.78,361.99s5.9,10.01,9.18,8.11"/>
  <path class="cls-8" d="M10.52,507.6l8.69,6.35,10.38-6.35,13.25,6.35s4.67,30.85-12.34,29.39-16.81-7.97-19.98-35.74Z"/>
</svg>