<?xml version="1.0" encoding="UTF-8"?>
<svg id="Laag_1" xmlns="http://www.w3.org/2000/svg" xmlns:xlink="http://www.w3.org/1999/xlink" viewBox="0 0 246.14 541.52">
  <defs>
    <style>
      .cls-1, .cls-2, .cls-3, .cls-4, .cls-5, .cls-6, .cls-7, .cls-8, .cls-9, .cls-10, .cls-11, .cls-12, .cls-13, .cls-14, .cls-15, .cls-16, .cls-17 {
        stroke-miterlimit: 10;
      }

      .cls-1, .cls-2, .cls-3, .cls-6, .cls-7, .cls-8, .cls-9, .cls-10, .cls-11, .cls-12, .cls-13, .cls-14, .cls-15, .cls-16, .cls-17 {
        stroke: #1d1d1b;
      }

      .cls-1, .cls-2, .cls-13, .cls-15 {
        stroke-width: .75px;
      }

      .cls-1, .cls-12, .cls-17 {
        fill: none;
      }

      .cls-2, .cls-18, .cls-6 {
        fill: #1d1d1b;
      }

      .cls-3 {
        fill: url(#Naamloos_verloop_3);
      }

      .cls-3, .cls-4, .cls-7, .cls-8, .cls-9, .cls-10, .cls-11 {
        stroke-width: 2px;
      }

      .cls-4 {
        fill: #a98abf;
        stroke: #4c4a9a;
      }

      .cls-5 {
        fill: #fff;
        stroke: #fff;
      }

      .cls-5, .cls-6, .cls-12 {
        stroke-width: .5px;
      }

      .cls-7 {
        fill: #c0e4f5;
      }

      .cls-8 {
        fill: url(#Naamloos_verloop_3-2);
      }

      .cls-9 {
        fill: #f08038;
      }

      .cls-10 {
        fill: url(#Naamloos_verloop_3-3);
      }

      .cls-11 {
        fill: #ece426;
      }

      .cls-13 {
        fill: #92a677;
      }

      .cls-14 {
        fill: url(#Naamloos_verloop_4);
      }

      .cls-15 {
        fill: #91a677;
      }

      .cls-16 {
        fill: #28509d;
      }
    </style>
    <linearGradient id="Naamloos_verloop_3" data-name="Naamloos verloop 3" x1="1" y1="270.76" x2="245.14" y2="270.76" gradientUnits="userSpaceOnUse">
      <stop offset="0" stop-color="#fff"/>
      <stop offset=".09" stop-color="#e9edf5"/>
      <stop offset=".54" stop-color="#8198c6"/>
      <stop offset=".85" stop-color="#4063a9"/>
      <stop offset="1" stop-color="#274f9e"/>
    </linearGradient>
    <linearGradient id="Naamloos_verloop_3-2" data-name="Naamloos verloop 3" x1="-29.06" y1="1853.75" x2="30.09" y2="1853.75" gradientTransform="translate(562.2 1917.35) rotate(167.78) scale(1.07 .94)" xlink:href="#Naamloos_verloop_3"/>
    <linearGradient id="Naamloos_verloop_3-3" data-name="Naamloos verloop 3" x1="578.9" y1="1954.3" x2="643.32" y2="1954.3" gradientTransform="translate(-949.5 1992.63) rotate(12.22) scale(1 -1)" xlink:href="#Naamloos_verloop_3"/>
    <linearGradient id="Naamloos_verloop_4" data-name="Naamloos verloop 4" x1="10.38" y1="522.64" x2="43.69" y2="522.64" gradientUnits="userSpaceOnUse">
      <stop offset="0" stop-color="#fff"/>
      <stop offset=".09" stop-color="#e9edf5"/>
      <stop offset=".54" stop-color="#8198c6"/>
      <stop offset=".85" stop-color="#4063a9"/>
      <stop offset="1" stop-color="#274f9e"/>
    </linearGradient>
  </defs>
  <path class="cls-3" d="M238.09,248.44c9.47,3.95,8.4,35.21,2.62,37.83s-3.42,18.66-5.78,26.8-24.96,24.96-24.96,24.96l2.1,2.1c9.2,6.04,24.7,19.71,15.24,29.96-9.46,10.25-25.23-1.84-25.23-1.84-12.61-10.77-18.39-4.99-21.55-9.2-2.51-3.34-33.88-.38-46.66.98-2.18.23-3.18,2.81-1.76,4.48,12.31,14.45,3.81,20.34-7.81,27.12-12.61,7.36-36.79-20.5-36.79-20.5-46.25-19.97-50.98,13.66-48.35,32.06s6.13,122.19,3.15,130.34c-3.83,10.5-24.02,8.03-26.8,0-4.73-13.66-19.79-152.28-12.61-184.47,6.42-28.77,28.38-26.8,28.38-26.8-16.82-18.39-10.83-45.72-11.88-79.88s47.09-100.38,47.09-100.38c-5.78-15.24,8.41-35.74,8.41-35.74-2.63-11.04,6.83-29.96,8.41-35.74s8.93-7.36,7.54-17.87,1.39-17.34,1.39-17.34c-5.26-22.6,5.78-33.11,9.46-34.16s2.63,3.15,8.93,5.26,3.68,3.15,6.83,7.88,17.87,19.45,18.67,19.45,16.94-.19,20.75-.53c1.73-.15,17.7,5.79,21.55,2.63,2.96-2.43,38.89-21.55,38.89-21.55,0,0,8.41,1.05-3.15,25.23s-1.05,32.58,2.1,44.15-7.88,8.93-8.41,27.33c0,0,5.19,11.28,4.34,14.38,0,0,15.27,39.01,7.38,64.94-4.38,14.4-.45,21.63,3.92,25.21,5.04,4.13,8.8,9.61,10.37,15.93l4.22,16.97"/>
  <path class="cls-1" d="M142.44,72.11s-12.88-42.31-28.91-42.57"/>
  <path class="cls-1" d="M176.49,73.69s10.8-15.28,25.08-18.92"/>
  <path class="cls-1" d="M173.33,80.61s10.19-12.61,25.25-13.84"/>
  <line class="cls-1" x1="172.56" y1="72.59" x2="190.26" y2="51.97"/>
  <path class="cls-1" d="M142.44,60.49s-8.87-25.84-12.28-27.42"/>
  <path class="cls-6" d="M144.81,92.13s-5.99-13.09-12.29-16.76c-3.15-1.84-9.75-.29-13.8.94-2.77.84-5.72.98-8.52.24-1.29-.34-4.09-2.24-2.51-1.34.26,1.2,21.88-5.72,28.61-1.88,0,0,7.61,6.38,8.51,18.79Z"/>
  <path class="cls-13" d="M141.54,85.99c.6,1.17-.7,6.99-.7,6.99-26.15,6.11-22.06-16.9-22.06-16.9l8.36-1.74c.56.36,6.84-3.13,14.4,11.65Z"/>
  <path class="cls-2" d="M127.44,75.42s-2.89,12.74,1.97,15.9,6.51-12.22,6.51-12.22c0,0-3.88-6.96-8.48-3.68Z"/>
  <path class="cls-5" d="M135.92,79.1c-.45-1.45-4.67,0-4.67,0-2.36,4.07,4.1,3.66,4.1,3.66l.57-3.66Z"/>
  <path class="cls-1" d="M191.33,80.33c-5.29-1.01-11.66-4.34-15-2.16-6.28,4.1-9.42,11.79-10.75,16.43-.58,2.02-.82,3.35-.82,3.35,0,0,12.18,8.04,22.16.42,0,0,5.93-4.69,5.5-14.82"/>
  <path class="cls-6" d="M165.58,94.6s7.55-11.43,14.01-13.96c3.23-1.27,9.21,1.15,12.84,2.91,2.48,1.2,5.24,1.76,7.98,1.48,1.26-.13,4.17-1.51,2.56-.89-.42,1.09-19.74-8.58-26.63-5.96,0,0-8.09,4.89-10.75,16.43Z"/>
  <path class="cls-15" d="M169.55,89.3c-.73,1.01-.36,6.68-.36,6.68,23.7,9.57,23.22-12.67,23.22-12.67l-7.61-2.86c-.58.25-5.98-3.95-15.25,8.85Z"/>
  <path class="cls-2" d="M184.36,81.42s.85,12.41-4.18,14.66c-5.03,2.25-4.33-12.44-4.33-12.44,0,0,4.67-5.98,8.51-2.22Z"/>
  <path class="cls-5" d="M175.85,83.64c.64-1.29,4.39.68,4.39.68,1.62,4.18-4.39,2.84-4.39,2.84v-3.52Z"/>
  <path class="cls-16" d="M149.82,109.29c.23,1.02-14.43-1.31-19.7.56-4.1,1.45-7.94,13.98,8.46,15.21,3.23.24,6.41-.89,8.82-3.05l4.95-4.43"/>
  <path class="cls-16" d="M163.13,108.15c-.03,2.01,8.39-1.4,13.01,4.1.89,1.06,1.84,2.81,1.24,4.06-1.4,2.93-4.9,8.96-12.62,8.82-6.16-.11-5.93-6.34-5.93-6.34"/>
  <path class="cls-1" d="M151.27,108.29s3.53-7.71-6.15-12.54c0,0-.03-1.42-.31-3.61-.64-5.03-2.66-13.52-8.51-18.79-3.12-2.8-8.8.32-14.46.35-13.32.07-9.18,3.55-8.31,6.92,1.46,5.63,7.19,20.45,31.58,15.13"/>
  <path class="cls-1" d="M162.11,107.41s-2.87-7.49,2.1-9.46"/>
  <path class="cls-16" d="M156.81,118.84c1.31.13,2.63-.19,3.74-.91,2.1-1.37,5.64-3.72,5.8-4.36.48-1.93-2.5-6.98-8.54-6.05h-1.99c-6.04-.93-9.02,4.12-8.54,6.05.16.65,3.69,3,5.8,4.36,1.11.72,2.42,1.04,3.74.91"/>
  <path class="cls-2" d="M154.69,118.49s-.61-8.24-6.46-7.12"/>
  <path class="cls-2" d="M159.75,118.49s-.27-7.72,6.93-6.55"/>
  <path class="cls-12" d="M91.14,104.67c8.67-.82,49.4,12.32,49.4,12.32,0,0-41.91-6.83-44.67-2.63"/>
  <path class="cls-12" d="M68.41,125.92c3.22-5.92,70.42-8.35,70.42-8.35,0,0-56.87,10.29-63.96,21.05"/>
  <path class="cls-12" d="M170.23,116.23s38.19-19.27,74.28-14.36"/>
  <path class="cls-12" d="M170.23,116.24s41.84-.31,45.92,4.51"/>
  <path class="cls-12" d="M170.97,116.3s28.34-1.58,54.62,10.25"/>
  <path class="cls-12" d="M170.23,116.99s2.56.01,6.45.28c9.98.7,28.71,3.13,35.33,11.54"/>
  <path class="cls-12" d="M201.99,131.25s-27.06-13.36-32.12-13.67"/>
  <path class="cls-17" d="M156.08,119.21c.07,6.39-11.67,9.61-12.56,8.89"/>
  <path class="cls-17" d="M156.08,119.21c.73,8.89,12.14,10.15,10.32,9.6"/>
  <path class="cls-18" d="M214.03,364.73s5.26,10.36,8.65,8.67"/>
  <path class="cls-18" d="M219.69,361.09s5.9,10.01,9.18,8.11"/>
  <path class="cls-18" d="M116.08,382.53s5.62,10.17,8.95,8.36"/>
  <path class="cls-18" d="M124.33,378.37s5.03,10.48,8.45,8.86"/>
  <g>
    <path class="cls-7" d="M158.5,237.41l11.91,4.17s4.94-7.15,18.22-13.07,20.62,10.69,21.18,14.62c.56,3.92-25.28,37.09-39.17,46.6-13.89,9.51-29.95.1-29.95.1-23.86,10.97-62.41,4.98-62.41,4.98-30.09,10.22-31.33,3.67-31.33,3.67-17.57-15.27-16.52-26.08-14.86-36.04,1.77-10.62,13.67-11.39,13.67-11.39-1.98-2.31,2.2-4.32,2.2-4.32l21.68-12.09c2.75-6.69,11.74-5.79,11.74-5.79,17.62,1.56,1.9,21.04,1.9,21.04,11.12,6.88,48.92-2.5,48.66-.65-2.35-2.99-.9-13.76,26.56-11.83Z"/>
    <path class="cls-4" d="M35.99,257s-5.08,10.86-1.49,22.34c2.46,7.85,8.16,6.4,12.7,5.28,25.51-6.31,32.8,3.13,30.45-8.78l-.62-4.31"/>
    <path class="cls-4" d="M167.94,241.94s13.38,10.01,10.57,21.09c-2.8,11.08-8.82,11.21-13.18,11-26.25-1.25-30.58,12.25-31.7.17l-.62-4.31"/>
    <path class="cls-4" d="M82.46,250.82s-31.53-4.86-37.26,1.88c0,0-11.68,2.43-11.05,9.72s25.79,5.28,25.79,5.28c0,0,5.72.43,9.02,3.84,1.74,1.8,12.37,7.32,17.2,7.53,37.69,1.64,46.5-5.17,56.82-17.05,0,0,31.96,1.68,28.07-16.6,0,0-7.84-16.87-36.18-2.11,0,0-1.64,8.34-5.82,7.69s-38.67,7.24-46.6-.18Z"/>
    <path class="cls-11" d="M129.3,265.37l-.86-5.98c-.18-1.24-1.25-2.16-2.5-2.16-.95,0-2.25.07-3.97.28-4.8.59-16.55,1.11-23.73,1.38-2.69.1-4.08.43-6.72.19-1.28-.12-4.03-.35-4.47.79l-3.81,9.77c-.68,1.73.7,3.58,2.55,3.42,9.41-.79,32.74-2.89,41.57-4.87,1.29-.29,2.13-1.51,1.94-2.82Z"/>
    <path class="cls-9" d="M70.94,241.88c1.04-.18,2.29-.91,3.16-1.5,5.24-3.55.26-9.17-7.04-10.22-8.32-1.2-14.55,1.75-17.27,3.62-1.41.96-2.04,2.77-1.42,4.36,1.01,2.58,4.94,5.61,18.28,4.51,0,0,2.09-.29,2.09-.29l2.19-.47Z"/>
    <path class="cls-9" d="M138.13,240.13l2.35,7.49c2.38,4.72,8.54,2.42,8.54,2.42,6.87-1.52,5.03-11.31,6.06-11.42.12-.01.23-.02.35-.03,9.95-.73,12.15,13.21-7.58,14.78-23.67,1.89-12.88-10.47-12.88-10.47l3.17-2.77"/>
    <path class="cls-9" d="M136.86,239.53c-1.05-.07-2.38-.65-3.31-1.14-5.6-2.95-1.28-9.08,5.86-10.94,8.14-2.12,14.65.13,17.57,1.67,1.51.8,2.33,2.52,1.89,4.17-.72,2.68-4.28,6.12-17.66,6.52,0,0-2.11-.06-2.11-.06l-2.23-.23Z"/>
    <path class="cls-11" d="M137.76,239.79c8.61,1.19,14.6-1.66,16.75-1.98,1.74-.26,1,11.87-7.49,12.62-2.88.25-10.38-1.33-9.27-10.64Z"/>
    <path class="cls-9" d="M44.89,294.68c-.81-1.07-2.07-4.13-1.65-4.94,1.02-1.99,3.19-3.19,8.27-3.84s6.86,1.12,7.41,1.81c.11.14.19.29.26.45l3.42,7.97c.64,1.49-.36,1.95-1.95,2.25-1.1.21-4.68.95-6.59,1.11-2.7.22-3.39-.71-5.36-1.27,0,0-2.84-2.26-3.81-3.53Z"/>
    <path class="cls-9" d="M55.73,278.03l-.82-5.72c-.08-.57-.63-.95-1.19-.84-3.61.75-15.26,3.39-13.82,6.07,1.3,2.41,2.89,3.53,3.57,3.92.21.12.44.15.67.11,1.6-.3,8.42-1.63,10.92-2.45.46-.15.74-.61.67-1.09Z"/>
    <path class="cls-9" d="M155.12,264.69l-.36,2.62c-.17,1.25,1.09,2.25,2.71,2.16l11.43-.6c1.82-.1,3.2-1.45,2.83-2.79l-1-3.67c-.26-.97-1.49-1.54-2.79-1.31l-10.96,1.98c-.99.18-1.75.84-1.86,1.6Z"/>
    <path class="cls-9" d="M70.07,242.24l-.71,7.23c-2.16,4.39-7.51,4.73-7.51,4.73-7.02.48-8.02-9.43-9.03-9.24-.11.02-.23.04-.34.07-9.76,2.11-7.93,16.1,11.44,12.04,23.25-4.87,9.72-13.07,9.72-13.07l-3.83-1.77"/>
    <path class="cls-11" d="M70.07,242.24c-8.43,2.14-14.7-.02-16.87-.11-1.76-.07.32,11.91,8.84,11.71,2.89-.07,10.17-2.47,8.03-11.6Z"/>
    <path class="cls-9" d="M152.57,292.21c-1.8-.29-3.92-1.07-3.14-2.72,1.13-2.41,2.65-5.78,3.22-7.7.65-2.19,2.09-2.95,2.93-3.21.33-.1.66-.13,1.01-.11,1.85.15,10.34.87,12.61,1.7,1.77.64,1.76,3,1.75,5.46,0,1.13.13,3.01-.92,3.43-3.52,1.42-11.31,4.12-17.45,3.14Z"/>
  </g>
  <path class="cls-8" d="M218.77,192.9s-44.67,18.64-51.91,29.6c-7.23,10.96,2.31,21.31,8.33,26.04,6.02,4.73,21.78-14.78,16.29-15.27,0,0,3.71-.47,2.81-4.64-.72-3.32,5.51-4.9,9.53-6.47,2.06-.81,4.25-1.28,6.47-1.34l15.66-3.38s-5.22-1.77-6.87-9.64-.38-12.85-.38-12.85"/>
  <path class="cls-10" d="M41.99,182.34s41.42,18.55,47.9,29.99c6.48,11.44-2.77,22.7-8.55,27.9-5.79,5.2-20.03-15.09-14.87-15.77,0,0-3.47-.4-2.5-4.85.77-3.55-5.04-5.05-8.76-6.61-1.91-.8-3.96-1.24-6.03-1.24l-19.61-4.99,2.79-8.13c1.99-5.78,7.49-13.42,7.49-13.42"/>
  <path class="cls-14" d="M10.38,504.88l8.79,6.31,10.51-6.31,13.41,6.31s4.72,30.63-12.49,29.18-17.02-7.91-20.22-35.48Z"/>
</svg>