<?xml version="1.0" encoding="UTF-8"?>
<svg id="Laag_1" xmlns="http://www.w3.org/2000/svg" xmlns:xlink="http://www.w3.org/1999/xlink" viewBox="0 0 254.85 541.52">
  <defs>
    <style>
      .cls-1, .cls-2, .cls-3, .cls-4, .cls-5, .cls-6, .cls-7, .cls-8, .cls-9, .cls-10, .cls-11, .cls-12, .cls-13, .cls-14 {
        stroke-miterlimit: 10;
      }

      .cls-1, .cls-2, .cls-3, .cls-5, .cls-6, .cls-7, .cls-8, .cls-9, .cls-10, .cls-11, .cls-12, .cls-13, .cls-14 {
        stroke: #1d1d1b;
      }

      .cls-1, .cls-2, .cls-10, .cls-12 {
        stroke-width: .75px;
      }

      .cls-1, .cls-9, .cls-14 {
        fill: none;
      }

      .cls-2, .cls-15, .cls-5 {
        fill: #1d1d1b;
      }

      .cls-3 {
        fill: url(#Naamloos_verloop_3);
      }

      .cls-3, .cls-7, .cls-8 {
        stroke-width: 2px;
      }

      .cls-4 {
        fill: #fff;
        stroke: #fff;
      }

      .cls-4, .cls-5, .cls-9 {
        stroke-width: .5px;
      }

      .cls-6 {
        fill: #7f4112;
      }

      .cls-7 {
        fill: url(#Naamloos_verloop_3-2);
      }

      .cls-8 {
        fill: url(#Naamloos_verloop_3-3);
      }

      .cls-10 {
        fill: #92a677;
      }

      .cls-11 {
        fill: url(#Naamloos_verloop_4);
      }

      .cls-12 {
        fill: #91a677;
      }

      .cls-13 {
        fill: #28509d;
      }
    </style>
    <linearGradient id="Naamloos_verloop_3" data-name="Naamloos verloop 3" x1="1" y1="270.76" x2="245.14" y2="270.76" gradientUnits="userSpaceOnUse">
      <stop offset="0" stop-color="#fff"/>
      <stop offset=".09" stop-color="#e9edf5"/>
      <stop offset=".54" stop-color="#8198c6"/>
      <stop offset=".85" stop-color="#4063a9"/>
      <stop offset="1" stop-color="#274f9e"/>
    </linearGradient>
    <linearGradient id="Naamloos_verloop_3-2" data-name="Naamloos verloop 3" x1="-49.07" y1="1837.77" x2="10.08" y2="1837.77" gradientTransform="translate(538.06 1907.28) rotate(167.78) scale(1.07 .94)" xlink:href="#Naamloos_verloop_3"/>
    <linearGradient id="Naamloos_verloop_3-3" data-name="Naamloos verloop 3" x1="580.04" y1="1943.64" x2="644.46" y2="1943.64" gradientTransform="translate(-948.36 1981.98) rotate(12.22) scale(1 -1)" xlink:href="#Naamloos_verloop_3"/>
    <linearGradient id="Naamloos_verloop_4" data-name="Naamloos verloop 4" x1="10.76" y1="523.14" x2="44.07" y2="523.14" gradientUnits="userSpaceOnUse">
      <stop offset="0" stop-color="#fff"/>
      <stop offset=".09" stop-color="#e9edf5"/>
      <stop offset=".54" stop-color="#8198c6"/>
      <stop offset=".85" stop-color="#4063a9"/>
      <stop offset="1" stop-color="#274f9e"/>
    </linearGradient>
  </defs>
  <path class="cls-3" d="M238.09,248.44c9.47,3.95,8.4,35.21,2.62,37.83s-3.42,18.66-5.78,26.8-24.96,24.96-24.96,24.96l2.1,2.1c9.2,6.04,24.7,19.71,15.24,29.96-9.46,10.25-25.23-1.84-25.23-1.84-12.61-10.77-18.39-4.99-21.55-9.2-2.51-3.34-33.88-.38-46.66.98-2.18.23-3.18,2.81-1.76,4.48,12.31,14.45,3.81,20.34-7.81,27.12-12.61,7.36-36.79-20.5-36.79-20.5-46.25-19.97-50.98,13.66-48.35,32.06s6.13,122.19,3.15,130.34c-3.83,10.5-24.02,8.03-26.8,0-4.73-13.66-19.79-152.28-12.61-184.47,6.42-28.77,28.38-26.8,28.38-26.8-16.82-18.39-10.83-45.72-11.88-79.88s47.09-100.38,47.09-100.38c-5.78-15.24,8.41-35.74,8.41-35.74-2.63-11.04,6.83-29.96,8.41-35.74s8.93-7.36,7.54-17.87c-1.39-10.51,1.39-17.34,1.39-17.34-5.26-22.6,5.78-33.11,9.46-34.16s2.63,3.15,8.93,5.26,3.68,3.15,6.83,7.88c3.15,4.73,17.87,19.45,18.67,19.45s16.94-.19,20.75-.53c1.73-.15,17.7,5.79,21.55,2.63,2.96-2.43,38.89-21.55,38.89-21.55,0,0,8.41,1.05-3.15,25.23s-1.05,32.58,2.1,44.15-7.88,8.93-8.41,27.33c0,0,5.19,11.28,4.34,14.38,0,0,15.27,39.01,7.38,64.94-4.38,14.4-.45,21.63,3.92,25.21,5.04,4.13,8.8,9.61,10.37,15.93l4.22,16.97"/>
  <path class="cls-1" d="M142.44,72.11s-12.88-42.31-28.91-42.57"/>
  <path class="cls-1" d="M176.49,73.69s10.8-15.28,25.08-18.92"/>
  <path class="cls-1" d="M173.33,80.61s10.19-12.61,25.25-13.84"/>
  <line class="cls-1" x1="172.56" y1="72.59" x2="190.26" y2="51.97"/>
  <path class="cls-1" d="M142.44,60.49s-8.87-25.84-12.28-27.42"/>
  <path class="cls-5" d="M144.81,92.13s-5.99-13.09-12.29-16.76c-3.15-1.84-9.75-.29-13.8.94-2.77.84-5.72.98-8.52.24-1.29-.34-4.09-2.24-2.51-1.34.26,1.2,21.88-5.72,28.61-1.88,0,0,7.61,6.38,8.51,18.79Z"/>
  <path class="cls-10" d="M141.54,85.99c.6,1.17-.7,6.99-.7,6.99-26.15,6.11-22.06-16.9-22.06-16.9l8.36-1.74c.56.36,6.84-3.13,14.4,11.65Z"/>
  <path class="cls-2" d="M127.44,75.42s-2.89,12.74,1.97,15.9c4.86,3.15,6.51-12.22,6.51-12.22,0,0-3.88-6.96-8.48-3.68Z"/>
  <path class="cls-4" d="M135.92,79.1c-.45-1.45-4.67,0-4.67,0-2.36,4.07,4.1,3.66,4.1,3.66l.57-3.66Z"/>
  <path class="cls-1" d="M191.33,80.33c-5.29-1.01-11.66-4.34-15-2.16-6.28,4.1-9.42,11.79-10.75,16.43-.58,2.02-.82,3.35-.82,3.35,0,0,12.18,8.04,22.16.42,0,0,5.93-4.69,5.5-14.82"/>
  <path class="cls-5" d="M165.58,94.6s7.55-11.43,14.01-13.96c3.23-1.27,9.21,1.15,12.84,2.91,2.48,1.2,5.24,1.76,7.98,1.48,1.26-.13,4.17-1.51,2.56-.89-.42,1.09-19.74-8.58-26.63-5.96,0,0-8.09,4.89-10.75,16.43Z"/>
  <path class="cls-12" d="M169.55,89.3c-.73,1.01-.36,6.68-.36,6.68,23.7,9.57,23.22-12.67,23.22-12.67l-7.61-2.86c-.58.25-5.98-3.95-15.25,8.85Z"/>
  <path class="cls-2" d="M184.36,81.42s.85,12.41-4.18,14.66c-5.03,2.25-4.33-12.44-4.33-12.44,0,0,4.67-5.98,8.51-2.22Z"/>
  <path class="cls-4" d="M175.85,83.64c.64-1.29,4.39.68,4.39.68,1.62,4.18-4.39,2.84-4.39,2.84v-3.52Z"/>
  <path class="cls-13" d="M149.82,109.29c.23,1.02-14.43-1.31-19.7.56-4.1,1.45-7.94,13.98,8.46,15.21,3.23.24,6.41-.89,8.82-3.05l4.95-4.43"/>
  <path class="cls-13" d="M163.13,108.15c-.03,2.01,8.39-1.4,13.01,4.1.89,1.06,1.84,2.81,1.24,4.06-1.4,2.93-4.9,8.96-12.62,8.82-6.16-.11-5.93-6.34-5.93-6.34"/>
  <path class="cls-1" d="M151.27,108.29s3.53-7.71-6.15-12.54c0,0-.03-1.42-.31-3.61-.64-5.03-2.66-13.52-8.51-18.79-3.12-2.8-8.8.32-14.46.35-13.32.07-9.18,3.55-8.31,6.92,1.46,5.63,7.19,20.45,31.58,15.13"/>
  <path class="cls-1" d="M162.11,107.41s-2.87-7.49,2.1-9.46"/>
  <path class="cls-13" d="M156.81,118.84c1.31.13,2.63-.19,3.74-.91,2.1-1.37,5.64-3.72,5.8-4.36.48-1.93-2.5-6.98-8.54-6.05h-1.99c-6.04-.93-9.02,4.12-8.54,6.05.16.65,3.69,3,5.8,4.36,1.11.72,2.42,1.04,3.74.91"/>
  <path class="cls-2" d="M154.69,118.49s-.61-8.24-6.46-7.12"/>
  <path class="cls-2" d="M159.75,118.49s-.27-7.72,6.93-6.55"/>
  <path class="cls-9" d="M91.14,104.67c8.67-.82,49.4,12.32,49.4,12.32,0,0-41.91-6.83-44.67-2.63"/>
  <path class="cls-9" d="M68.41,125.92c3.22-5.92,70.42-8.35,70.42-8.35,0,0-56.87,10.29-63.96,21.05"/>
  <path class="cls-9" d="M170.23,116.23s38.19-19.27,74.28-14.36"/>
  <path class="cls-9" d="M170.23,116.24s41.84-.31,45.92,4.51"/>
  <path class="cls-9" d="M170.97,116.3s28.34-1.58,54.62,10.25"/>
  <path class="cls-9" d="M170.23,116.99s2.56.01,6.45.28c9.98.7,28.71,3.13,35.33,11.54"/>
  <path class="cls-9" d="M201.99,131.25s-27.06-13.36-32.12-13.67"/>
  <path class="cls-14" d="M156.08,119.21c.07,6.39-11.67,9.61-12.56,8.89"/>
  <path class="cls-14" d="M156.08,119.21c.73,8.89,12.14,10.15,10.32,9.6"/>
  <path class="cls-15" d="M214.03,364.73s5.26,10.36,8.65,8.67"/>
  <path class="cls-15" d="M219.69,361.09s5.9,10.01,9.18,8.11"/>
  <path class="cls-15" d="M116.08,382.53s5.62,10.17,8.95,8.36"/>
  <path class="cls-15" d="M124.33,378.37s5.03,10.48,8.45,8.86"/>
  <path class="cls-7" d="M218.77,192.9s-44.67,18.64-51.91,29.6c-7.23,10.96,2.31,21.31,8.33,26.04,6.02,4.73,21.78-14.78,16.29-15.27,0,0,3.71-.47,2.81-4.64-.72-3.32,5.51-4.9,9.53-6.47,2.06-.81,4.25-1.28,6.47-1.34l15.66-3.38s-5.22-1.77-6.87-9.64c-1.65-7.87-.38-12.85-.38-12.85"/>
  <path class="cls-8" d="M41.99,182.34s41.42,18.55,47.9,29.99c6.48,11.44-2.77,22.7-8.55,27.9-5.79,5.2-20.03-15.09-14.87-15.77,0,0-3.47-.4-2.5-4.85.77-3.55-5.04-5.05-8.76-6.61-1.91-.8-3.96-1.24-6.03-1.24l-19.61-4.99,2.79-8.13c1.99-5.78,7.49-13.42,7.49-13.42"/>
  <path class="cls-6" d="M74.58,501.22c-.11.33-.16.67-.17,1.02"/>
  <path class="cls-11" d="M10.76,505.37l8.79,6.31,10.51-6.31,13.41,6.31s4.72,30.63-12.49,29.18-17.02-7.91-20.22-35.48Z"/>
</svg>