<?xml version="1.0" encoding="UTF-8"?>
<svg id="Laag_1" xmlns="http://www.w3.org/2000/svg" xmlns:xlink="http://www.w3.org/1999/xlink" viewBox="0 0 403.74 679.72">
  <defs>
    <style>
      .cls-1, .cls-2, .cls-3, .cls-4, .cls-5, .cls-6, .cls-7, .cls-8, .cls-9, .cls-10, .cls-11, .cls-12, .cls-13 {
        stroke: #1d1d1b;
        stroke-miterlimit: 10;
      }

      .cls-1, .cls-2, .cls-5 {
        stroke-width: .75px;
      }

      .cls-1, .cls-10, .cls-13 {
        fill: none;
      }

      .cls-2, .cls-14, .cls-6 {
        fill: #1d1d1b;
      }

      .cls-3 {
        fill: url(#Naamloos_verloop_3);
      }

      .cls-3, .cls-8, .cls-9 {
        stroke-width: 2px;
      }

      .cls-4, .cls-5 {
        fill: #f1f2c0;
      }

      .cls-6, .cls-10 {
        stroke-width: .5px;
      }

      .cls-7 {
        fill: #eb5599;
      }

      .cls-8 {
        fill: url(#Naamloos_verloop_3-2);
      }

      .cls-9 {
        fill: url(#Naamloos_verloop_3-3);
      }

      .cls-11 {
        fill: url(#Naamloos_verloop_4);
      }

      .cls-12 {
        fill: #28509d;
      }
    </style>
    <linearGradient id="Naamloos_verloop_3" data-name="Naamloos verloop 3" x1="100.8" y1="345.09" x2="402.74" y2="345.09" gradientUnits="userSpaceOnUse">
      <stop offset="0" stop-color="#fff"/>
      <stop offset=".09" stop-color="#e9edf5"/>
      <stop offset=".54" stop-color="#8198c6"/>
      <stop offset=".85" stop-color="#4063a9"/>
      <stop offset="1" stop-color="#274f9e"/>
    </linearGradient>
    <linearGradient id="Naamloos_verloop_3-2" data-name="Naamloos verloop 3" x1="213.43" y1="2157.57" x2="286.58" y2="2157.57" gradientTransform="translate(1029.4 2201.4) rotate(167.78) scale(1.07 .94)" xlink:href="#Naamloos_verloop_3"/>
    <linearGradient id="Naamloos_verloop_3-3" data-name="Naamloos verloop 3" x1="663.66" y1="2217.56" x2="743.33" y2="2217.56" gradientTransform="translate(-981.41 2290.78) rotate(12.22) scale(1 -1)" xlink:href="#Naamloos_verloop_3"/>
    <linearGradient id="Naamloos_verloop_4" data-name="Naamloos verloop 4" x1="112.48" y1="656.69" x2="153.67" y2="656.69" gradientUnits="userSpaceOnUse">
      <stop offset="0" stop-color="#fff"/>
      <stop offset=".09" stop-color="#e9edf5"/>
      <stop offset=".54" stop-color="#8198c6"/>
      <stop offset=".85" stop-color="#4063a9"/>
      <stop offset="1" stop-color="#274f9e"/>
    </linearGradient>
  </defs>
  <g>
    <g>
      <path class="cls-3" d="M394.03,317.48c11.71,4.88,10.39,43.54,3.24,46.79s-4.22,23.07-7.15,33.15c-2.92,10.07-30.87,30.87-30.87,30.87l2.6,2.6c11.37,7.47,30.55,24.37,18.85,37.05-11.7,12.67-31.2-2.27-31.2-2.27-15.6-13.32-22.75-6.17-26.65-11.37-3.1-4.13-41.9-.47-57.71,1.21-2.7.29-3.93,3.48-2.17,5.54,15.22,17.88,4.71,25.16-9.66,33.54-15.6,9.1-45.5-25.35-45.5-25.35-57.2-24.7-63.05,16.9-59.8,39.65s7.58,151.12,3.9,161.19c-4.74,12.98-29.71,9.93-33.15,0-5.85-16.9-24.48-188.33-15.6-228.14,7.94-35.58,35.1-33.15,35.1-33.15-20.8-22.75-13.39-56.55-14.69-98.8-1.3-42.25,58.24-124.14,58.24-124.14-7.15-18.85,10.4-44.2,10.4-44.2-3.25-13.65,8.45-37.05,10.4-44.2s11.05-9.1,9.33-22.1c-1.72-13,1.72-21.45,1.72-21.45-6.5-27.95,7.15-40.95,11.7-42.25s3.25,3.9,11.05,6.5,4.55,3.9,8.45,9.75,22.1,24.05,23.09,24.05,20.95-.23,25.66-.65c2.14-.19,21.89,7.17,26.65,3.25,3.66-3.01,48.1-26.65,48.1-26.65,0,0,10.4,1.3-3.9,31.2-14.3,29.9-1.3,40.3,2.6,54.6,3.9,14.3-9.75,11.05-10.4,33.8,0,0,6.42,13.95,5.37,17.79,0,0,18.88,48.25,9.13,80.31-5.42,17.81-.55,26.75,4.84,31.18,6.23,5.11,10.88,11.88,12.82,19.7l5.22,20.99"/>
      <path class="cls-1" d="M275.73,99.41s-15.92-52.32-35.75-52.65"/>
      <path class="cls-1" d="M317.83,101.36s13.36-18.9,31.02-23.4"/>
      <path class="cls-1" d="M313.93,109.92s12.6-15.6,31.23-17.12"/>
      <line class="cls-1" x1="312.97" y1="100" x2="334.87" y2="74.5"/>
      <path class="cls-1" d="M275.73,85.03s-10.97-31.96-15.19-33.91"/>
      <path class="cls-6" d="M278.65,124.17s-7.41-16.19-15.2-20.72c-3.9-2.27-12.06-.36-17.07,1.17-3.43,1.04-7.08,1.21-10.54.3-1.6-.42-5.05-2.77-3.1-1.66.32,1.49,27.06-7.07,35.38-2.33,0,0,9.42,7.89,10.52,23.24Z"/>
      <path class="cls-13" d="M336.19,109.57c-6.54-1.25-14.42-5.37-18.55-2.67-7.76,5.07-11.65,14.59-13.3,20.32-.72,2.5-1.01,4.14-1.01,4.14,0,0,34.99-16.4,41.01-15.91"/>
      <path class="cls-6" d="M304.34,127.22s9.34-14.14,17.33-17.27c4-1.57,11.39,1.43,15.88,3.6,3.07,1.48,6.48,2.18,9.87,1.82,1.56-.16,5.16-1.86,3.16-1.1-.52,1.35-24.41-10.61-32.94-7.37,0,0-10.01,6.04-13.3,20.32Z"/>
      <path class="cls-12" d="M284.85,145.39c.29,1.26-17.84-1.62-24.36.69-5.06,1.79-9.82,17.29,10.46,18.82,3.99.3,7.92-1.1,10.9-3.78l6.12-5.48"/>
      <path class="cls-12" d="M301.31,143.98c-.04,2.48,10.38-1.73,16.1,5.08,1.1,1.31,2.28,3.48,1.54,5.02-1.74,3.63-6.06,11.08-15.61,10.91-7.61-.14-7.33-7.84-7.33-7.84"/>
      <path class="cls-1" d="M286.64,144.15s4.36-9.53-7.61-15.51c0,0-.04-1.75-.38-4.46-.79-6.22-3.28-16.72-10.52-23.24-3.85-3.47-10.88.39-17.88.43"/>
      <path class="cls-1" d="M300.06,143.06s-3.55-9.27,2.6-11.7"/>
      <path class="cls-12" d="M293.5,157.2c1.63.17,3.25-.23,4.62-1.12,2.6-1.69,6.97-4.59,7.17-5.4.6-2.38-3.09-8.63-10.56-7.48h-2.46c-7.47-1.15-11.16,5.1-10.56,7.48.2.8,4.57,3.71,7.17,5.4,1.37.89,3,1.29,4.62,1.12"/>
      <path class="cls-2" d="M290.88,156.77s-.76-10.19-7.99-8.81"/>
      <path class="cls-2" d="M297.13,156.77s-.33-9.54,8.57-8.1"/>
      <path class="cls-10" d="M212.28,139.68c10.72-1.02,61.1,15.23,61.1,15.23,0,0-51.84-8.45-55.25-3.25"/>
      <path class="cls-10" d="M184.17,165.96c3.98-7.32,87.1-10.32,87.1-10.32,0,0-70.33,12.73-79.11,26.03"/>
      <path class="cls-10" d="M310.1,153.98s47.23-23.83,91.86-17.77"/>
      <path class="cls-10" d="M310.1,153.98s51.75-.38,56.79,5.58"/>
      <path class="cls-10" d="M311.01,154.06s35.06-1.95,67.55,12.68"/>
      <path class="cls-10" d="M310.1,154.91s3.17.01,7.98.35c12.35.87,35.51,3.87,43.69,14.27"/>
      <path class="cls-10" d="M349.37,172.55s-33.47-16.52-39.72-16.91"/>
      <path class="cls-13" d="M292.6,157.66c.08,7.91-14.44,11.89-15.53,10.99"/>
      <path class="cls-13" d="M292.6,157.66c.9,10.99,15.02,12.55,12.76,11.88"/>
      <path class="cls-14" d="M253.32,478.17s6.22,12.96,10.45,10.96"/>
      <path class="cls-8" d="M370.12,248.8s-55.25,23.06-64.2,36.61,2.85,26.35,10.3,32.21c7.45,5.86,26.94-18.28,20.15-18.89,0,0,4.59-.58,3.47-5.74-.89-4.1,6.82-6.06,11.79-8.01,2.55-1,5.26-1.59,8-1.65l19.37-4.19s-6.46-2.19-8.5-11.93c-2.04-9.73-.47-15.89-.47-15.89"/>
      <path class="cls-9" d="M151.49,235.74s51.22,22.94,59.24,37.1c8.02,14.15-3.42,28.08-10.58,34.51-7.16,6.43-24.78-18.67-18.39-19.5,0,0-4.29-.49-3.1-6,.95-4.39-6.23-6.24-10.84-8.18-2.37-.99-4.89-1.54-7.46-1.53l-24.25-6.17,3.45-10.05c2.46-7.15,9.26-16.6,9.26-16.6"/>
      <path class="cls-13" d="M238.61,105.05s39.65,19.82,40.14,24.54"/>
      <path class="cls-13" d="M263.61,126.99s5.98-3.1,5.03-5.63"/>
      <path class="cls-13" d="M254.84,121.89s5.97-3.12,5-5.65"/>
      <path class="cls-13" d="M237.26,111.8s6.56-1.54,6.25-4.22"/>
      <path class="cls-13" d="M247.04,117.16s5.85-3.34,4.79-5.83"/>
      <path class="cls-13" d="M347.5,120.44s-6.52-1.67-6.16-4.35"/>
      <path class="cls-13" d="M340.47,122.52s-6.61-1.3-6.4-4"/>
      <path class="cls-13" d="M332.93,126.17s-6.28-2.42-5.61-5.04"/>
      <path class="cls-13" d="M325.12,129.66s-5.94-3.18-4.94-5.7"/>
    </g>
    <path class="cls-11" d="M112.48,634.72l10.87,7.8,13-7.8,16.58,7.8s5.84,37.88-15.45,36.08-21.04-9.78-25.01-43.88Z"/>
  </g>
  <g>
    <path class="cls-4" d="M257.61,55.9c1.34,7.7-12.01,22.67-12.01,22.67,0,0,63.45-10.49,111.83,12.42l5.34-25.8s-45.38-15.99-81.3-15.49c-6.08.08-12.07,1.42-17.62,3.92l-6.93,3.12"/>
    <g>
      <path class="cls-7" d="M361.83,65.24s-8.86-51.13-50.12-56.23c0,0-20.08-2.04-27.27.26-7.2,2.3-19.47-8.03-19.47-8.03,0,0-27.23-6.09-36.79,16.55,0,0-.74,16.27-10.67,21.62-9.93,5.35-26.1,21.57-22.48,45.55,0,0,10.57,24.08,10.45,25.28s10.09,28.87,2.71,32.97c0,0,16.06-.19,19.71,8.66,0,0,21.71-28.98,16.61-44.33s-3.5-25.18,2.98-29.36c0,0,9.57-15.98,12.56-23.1,0,0,75.72-2.74,101.79,10.81"/>
      <ellipse class="cls-4" cx="213.1" cy="162.08" rx="20.05" ry="19.91" transform="translate(30.34 357.73) rotate(-84.21)"/>
    </g>
    <path class="cls-5" d="M314.52,16.45s-45.09,5.22-6.33,32.24c0,0-19.96-22.07,6.33-32.24Z"/>
  </g>
  <path class="cls-4" d="M115.9,19s9.76,2.47,15.1-.83,11.38,3.24,14.79.32-17.65,29.46-17.65,29.46c0,0,11.9,4.64,17.3-.92,5.39-5.56,9.84,3.05,11.77-1.08l.54,5.26s-4.4,1.12-7.66-.23-7.51,5.6-14.33,4.58-8.93-3.48-9.65-3.34-6.17.97-7.74,3.15,19.36-31.54,19.36-31.54c0,0-3.54-3.77-7.28-.81-4.78,3.78-7.23-2.47-14.73,1.29l.17-5.31Z"/>
  <path class="cls-4" d="M113.06,72.81s12.45,5.4,20.26,2.15,14.44,6.77,19.61,3.62c5.18-3.15-29.84,35.38-29.84,35.38,0,0,14.83,8.74,23.21,2.51,8.37-6.23,12.43,6.18,15.89,1.11l-.42,7.12s-6.09.54-10.14-1.96-11.2,5.83-20.05,3c-8.85-2.83-11.13-6.56-12.12-6.52s-8.42-.04-10.98,2.52,32.56-37.78,32.56-37.78c0,0-3.9-5.78-9.5-2.65-7.17,4-9.08-4.85-19.87-1.47l1.37-7.03Z"/>
  <path class="cls-4" d="M166.57,10.05s7.35,1.53,11.23-1.1,8.58,2.06,11.04-.23-12.22,22.51-12.22,22.51c0,0,9.02,3.08,12.86-1.23s7.43,1.96,8.74-1.18l.57,3.9s-3.24.97-5.72.07-5.42,4.41-10.53,3.87c-5.12-.55-6.76-2.31-7.3-2.18s-4.57.92-5.67,2.6,13.43-24.12,13.43-24.12c0,0-2.76-2.7-5.45-.37-3.44,2.97-5.47-1.61-10.94,1.43l-.04-3.96Z"/>
  <path class="cls-4" d="M126.78,143.59s6.63,3.53,11.08,2.09,7.66,4.38,10.66,2.87-18.04,18.19-18.04,18.19c0,0,7.79,5.48,12.69,2.42,4.9-3.07,6.58,3.96,8.72,1.32l-.55,3.91s-3.39.03-5.51-1.54c-2.12-1.56-6.44,2.72-11.19.76s-5.85-4.11-6.39-4.14-4.65-.4-6.17.9,19.65-19.39,19.65-19.39c0,0-1.89-3.36-5.13-1.88-4.14,1.89-4.8-3.08-10.9-1.7l1.07-3.81Z"/>
</svg>