<?xml version="1.0" encoding="UTF-8"?>
<svg id="Laag_1" xmlns="http://www.w3.org/2000/svg" xmlns:xlink="http://www.w3.org/1999/xlink" viewBox="0 0 346.54 541.52">
  <defs>
    <style>
      .cls-1, .cls-2, .cls-3, .cls-4, .cls-5, .cls-6, .cls-7, .cls-8, .cls-9, .cls-10, .cls-11, .cls-12, .cls-13, .cls-14, .cls-15, .cls-16, .cls-17, .cls-18 {
        stroke-miterlimit: 10;
      }

      .cls-1, .cls-2, .cls-3, .cls-4, .cls-6, .cls-7, .cls-8, .cls-9, .cls-10, .cls-11, .cls-12, .cls-13, .cls-14, .cls-15, .cls-16, .cls-17, .cls-18 {
        stroke: #1d1d1b;
      }

      .cls-1, .cls-3, .cls-7, .cls-13, .cls-15 {
        stroke-width: .75px;
      }

      .cls-1, .cls-12, .cls-18 {
        fill: none;
      }

      .cls-2 {
        stroke-width: 4px;
      }

      .cls-2, .cls-16 {
        fill: #babade;
      }

      .cls-3, .cls-19, .cls-6 {
        fill: #1d1d1b;
      }

      .cls-4 {
        fill: url(#Naamloos_verloop_3);
      }

      .cls-4, .cls-9, .cls-11, .cls-16 {
        stroke-width: 2px;
      }

      .cls-5 {
        fill: #fff;
        stroke: #fff;
      }

      .cls-5, .cls-6, .cls-12 {
        stroke-width: .5px;
      }

      .cls-7, .cls-10 {
        fill: #d8cae5;
      }

      .cls-8 {
        fill: #7f4112;
      }

      .cls-9 {
        fill: url(#Naamloos_verloop_3-2);
      }

      .cls-11 {
        fill: url(#Naamloos_verloop_3-3);
      }

      .cls-13 {
        fill: #92a677;
      }

      .cls-14 {
        fill: url(#Naamloos_verloop_4);
      }

      .cls-15 {
        fill: #91a677;
      }

      .cls-17 {
        fill: #28509d;
      }
    </style>
    <linearGradient id="Naamloos_verloop_3" data-name="Naamloos verloop 3" x1="1" y1="270.76" x2="245.14" y2="270.76" gradientUnits="userSpaceOnUse">
      <stop offset="0" stop-color="#fff"/>
      <stop offset=".09" stop-color="#e9edf5"/>
      <stop offset=".54" stop-color="#8198c6"/>
      <stop offset=".85" stop-color="#4063a9"/>
      <stop offset="1" stop-color="#274f9e"/>
    </linearGradient>
    <linearGradient id="Naamloos_verloop_4" data-name="Naamloos verloop 4" x1="10.76" y1="523.14" x2="44.07" y2="523.14" gradientUnits="userSpaceOnUse">
      <stop offset="0" stop-color="#fff"/>
      <stop offset=".09" stop-color="#e9edf5"/>
      <stop offset=".54" stop-color="#8198c6"/>
      <stop offset=".85" stop-color="#4063a9"/>
      <stop offset="1" stop-color="#274f9e"/>
    </linearGradient>
    <linearGradient id="Naamloos_verloop_3-2" data-name="Naamloos verloop 3" x1="635.37" y1="2107.55" x2="698.79" y2="2107.55" gradientTransform="translate(1105.3 -1706.6) rotate(-173.97) scale(1.07 -.94)" xlink:href="#Naamloos_verloop_3"/>
    <linearGradient id="Naamloos_verloop_3-3" data-name="Naamloos verloop 3" x1="572.63" y1="2030.82" x2="668.61" y2="2030.82" gradientTransform="translate(-957.06 2063.26) rotate(12.22) scale(1 -1)" xlink:href="#Naamloos_verloop_3"/>
  </defs>
  <path class="cls-4" d="M238.09,248.44c9.47,3.95,8.4,35.21,2.62,37.83s-3.42,18.66-5.78,26.8-24.96,24.96-24.96,24.96l2.1,2.1c9.2,6.04,24.7,19.71,15.24,29.96-9.46,10.25-25.23-1.84-25.23-1.84-12.61-10.77-18.39-4.99-21.55-9.2-2.51-3.34-33.88-.38-46.66.98-2.18.23-3.18,2.81-1.76,4.48,12.31,14.45,3.81,20.34-7.81,27.12-12.61,7.36-36.79-20.5-36.79-20.5-46.25-19.97-50.98,13.66-48.35,32.06s6.13,122.19,3.15,130.34c-3.83,10.5-24.02,8.03-26.8,0-4.73-13.66-19.79-152.28-12.61-184.47,6.42-28.77,28.38-26.8,28.38-26.8-16.82-18.39-10.83-45.72-11.88-79.88s47.09-100.38,47.09-100.38c-5.78-15.24,8.41-35.74,8.41-35.74-2.63-11.04,6.83-29.96,8.41-35.74s8.93-7.36,7.54-17.87c-1.39-10.51,1.39-17.34,1.39-17.34-5.26-22.6,5.78-33.11,9.46-34.16s2.63,3.15,8.93,5.26,3.68,3.15,6.83,7.88c3.15,4.73,17.87,19.45,18.67,19.45s16.94-.19,20.75-.53c1.73-.15,17.7,5.79,21.55,2.63,2.96-2.43,38.89-21.55,38.89-21.55,0,0,8.41,1.05-3.15,25.23s-1.05,32.58,2.1,44.15-7.88,8.93-8.41,27.33c0,0,5.19,11.28,4.34,14.38,0,0,15.27,39.01,7.38,64.94-4.38,14.4-.45,21.63,3.92,25.21,5.04,4.13,8.8,9.61,10.37,15.93l4.22,16.97"/>
  <path class="cls-1" d="M142.44,72.11s-12.88-42.31-28.91-42.57"/>
  <path class="cls-1" d="M176.49,73.69s10.8-15.28,25.08-18.92"/>
  <path class="cls-1" d="M173.33,80.61s10.19-12.61,25.25-13.84"/>
  <line class="cls-1" x1="172.56" y1="72.59" x2="190.26" y2="51.97"/>
  <path class="cls-1" d="M142.44,60.49s-8.87-25.84-12.28-27.42"/>
  <path class="cls-6" d="M144.81,92.13s-5.99-13.09-12.29-16.76c-3.15-1.84-9.75-.29-13.8.94-2.77.84-5.72.98-8.52.24-1.29-.34-4.09-2.24-2.51-1.34.26,1.2,21.88-5.72,28.61-1.88,0,0,7.61,6.38,8.51,18.79Z"/>
  <path class="cls-13" d="M141.54,85.99c.6,1.17-.7,6.99-.7,6.99-26.15,6.11-22.06-16.9-22.06-16.9l8.36-1.74c.56.36,6.84-3.13,14.4,11.65Z"/>
  <path class="cls-3" d="M127.44,75.42s-2.89,12.74,1.97,15.9c4.86,3.15,6.51-12.22,6.51-12.22,0,0-3.88-6.96-8.48-3.68Z"/>
  <path class="cls-5" d="M135.92,79.1c-.45-1.45-4.67,0-4.67,0-2.36,4.07,4.1,3.66,4.1,3.66l.57-3.66Z"/>
  <path class="cls-1" d="M191.33,80.33c-5.29-1.01-11.66-4.34-15-2.16-6.28,4.1-9.42,11.79-10.75,16.43-.58,2.02-.82,3.35-.82,3.35,0,0,12.18,8.04,22.16.42,0,0,5.93-4.69,5.5-14.82"/>
  <path class="cls-6" d="M165.58,94.6s7.55-11.43,14.01-13.96c3.23-1.27,9.21,1.15,12.84,2.91,2.48,1.2,5.24,1.76,7.98,1.48,1.26-.13,4.17-1.51,2.56-.89-.42,1.09-19.74-8.58-26.63-5.96,0,0-8.09,4.89-10.75,16.43Z"/>
  <path class="cls-15" d="M169.55,89.3c-.73,1.01-.36,6.68-.36,6.68,23.7,9.57,23.22-12.67,23.22-12.67l-7.61-2.86c-.58.25-5.98-3.95-15.25,8.85Z"/>
  <path class="cls-3" d="M184.36,81.42s.85,12.41-4.18,14.66c-5.03,2.25-4.33-12.44-4.33-12.44,0,0,4.67-5.98,8.51-2.22Z"/>
  <path class="cls-5" d="M175.85,83.64c.64-1.29,4.39.68,4.39.68,1.62,4.18-4.39,2.84-4.39,2.84v-3.52Z"/>
  <path class="cls-17" d="M149.82,109.29c.23,1.02-14.43-1.31-19.7.56-4.1,1.45-7.94,13.98,8.46,15.21,3.23.24,6.41-.89,8.82-3.05l4.95-4.43"/>
  <path class="cls-17" d="M163.13,108.15c-.03,2.01,8.39-1.4,13.01,4.1.89,1.06,1.84,2.81,1.24,4.06-1.4,2.93-4.9,8.96-12.62,8.82-6.16-.11-5.93-6.34-5.93-6.34"/>
  <path class="cls-1" d="M151.27,108.29s3.53-7.71-6.15-12.54c0,0-.03-1.42-.31-3.61-.64-5.03-2.66-13.52-8.51-18.79-3.12-2.8-8.8.32-14.46.35-13.32.07-9.18,3.55-8.31,6.92,1.46,5.63,7.19,20.45,31.58,15.13"/>
  <path class="cls-1" d="M162.11,107.41s-2.87-7.49,2.1-9.46"/>
  <path class="cls-17" d="M156.81,118.84c1.31.13,2.63-.19,3.74-.91,2.1-1.37,5.64-3.72,5.8-4.36.48-1.93-2.5-6.98-8.54-6.05h-1.99c-6.04-.93-9.02,4.12-8.54,6.05.16.65,3.69,3,5.8,4.36,1.11.72,2.42,1.04,3.74.91"/>
  <path class="cls-3" d="M154.69,118.49s-.61-8.24-6.46-7.12"/>
  <path class="cls-3" d="M159.75,118.49s-.27-7.72,6.93-6.55"/>
  <path class="cls-12" d="M91.14,104.67c8.67-.82,49.4,12.32,49.4,12.32,0,0-41.91-6.83-44.67-2.63"/>
  <path class="cls-12" d="M68.41,125.92c3.22-5.92,70.42-8.35,70.42-8.35,0,0-56.87,10.29-63.96,21.05"/>
  <path class="cls-12" d="M170.23,116.23s38.19-19.27,74.28-14.36"/>
  <path class="cls-12" d="M170.23,116.24s41.84-.31,45.92,4.51"/>
  <path class="cls-12" d="M170.97,116.3s28.34-1.58,54.62,10.25"/>
  <path class="cls-12" d="M170.23,116.99s2.56.01,6.45.28c9.98.7,28.71,3.13,35.33,11.54"/>
  <path class="cls-12" d="M201.99,131.25s-27.06-13.36-32.12-13.67"/>
  <path class="cls-18" d="M156.08,119.21c.07,6.39-11.67,9.61-12.56,8.89"/>
  <path class="cls-18" d="M156.08,119.21c.73,8.89,12.14,10.15,10.32,9.6"/>
  <path class="cls-19" d="M214.03,364.73s5.26,10.36,8.65,8.67"/>
  <path class="cls-19" d="M219.69,361.09s5.9,10.01,9.18,8.11"/>
  <path class="cls-19" d="M116.08,382.53s5.62,10.17,8.95,8.36"/>
  <path class="cls-19" d="M124.33,378.37s5.03,10.48,8.45,8.86"/>
  <path class="cls-8" d="M74.58,501.22c-.11.33-.16.67-.17,1.02"/>
  <path class="cls-14" d="M10.76,505.37l8.79,6.31,10.51-6.31,13.41,6.31s4.72,30.63-12.49,29.18-17.02-7.91-20.22-35.48Z"/>
  <g>
    <path class="cls-10" d="M166.34,137.08c3.33,2.4,6.53,4.96,9.58,7.7.83.74,1.49,1.36,1.74,1.65,1.93,2.24,2.48,5.62-.37,11.83-3.5,7.63-16.39,26.49-20.56,32.51-1.41,2.05-3.15,3.87-5.24,5.24-2.31,1.51-5.32,2.69-8.09,1.36-3.58-1.72-10.27-5.69-14.58-8.29-3.17-1.92-5.71-4.73-7.08-8.15-.34-.85-.14-2.69-.15-3.28-.03-1.95,16.35-28.23,22.34-37.92,1.92-3.1,4.67-5.67,8.03-7.15,1.88-.83,3.56-1.16,5.49-.82,1.46.25,2.81.93,4.01,1.79l4.87,3.52Z"/>
    <path class="cls-10" d="M125.92,187.21l15.06,9.65s-2.64,6.61-5.47,9.16c-2.83,2.54-7.16-.08-11.84-3.16s-3.48-5.48-2.98-6.88l5.24-8.76Z"/>
    <line class="cls-2" x1="127.4" y1="204.35" x2="36.42" y2="344.65"/>
    <path class="cls-10" d="M34.91,357.28s-23.89-14.41-24.02-21.64c-.14-7.83,24.86-1.93,35.71,5.84,10.52,7.54,18.77,18.12,16.34,23.67-2.43,5.56-28.03-7.87-28.03-7.87Z"/>
    <path class="cls-7" d="M8.71,347.8c-6.1-11.43,2.12-14.01,2.12-14.01,0,0,29.33,30.43,51.49,32.49,0,0-2.68,8.06-11.73,6.94-10.87-1.34-41.01-21.05-41.88-25.42Z"/>
    <line class="cls-16" x1="169.9" y1="160.02" x2="160.01" y2="154.44"/>
    <line class="cls-16" x1="164.74" y1="168.35" x2="154.85" y2="162.77"/>
    <line class="cls-16" x1="160.08" y1="176.88" x2="150.2" y2="171.3"/>
    <line class="cls-16" x1="154.41" y1="186.11" x2="144.52" y2="180.53"/>
    <line class="cls-16" x1="152.15" y1="147.96" x2="142.27" y2="142.38"/>
    <line class="cls-16" x1="146.99" y1="156.29" x2="137.1" y2="150.71"/>
    <line class="cls-16" x1="142.34" y1="164.82" x2="132.45" y2="159.24"/>
    <line class="cls-16" x1="136.66" y1="174.05" x2="126.77" y2="168.47"/>
  </g>
  <path class="cls-9" d="M218.29,205.76s-52.88-13.12-61.26-23.24c-8.37-10.12,0-21.43,5.47-26.79,5.48-5.36,23.25,12.35,17.85,13.42,0,0,3.74.07,3.29,4.31-.36,3.38,6.01,4.27,10.17,5.41,2.14.58,4.37.82,6.57.63l20.18,2.43s.89,1.9-2,9.25-.28,14.57-.28,14.57"/>
  <path class="cls-11" d="M46.5,173.58s69.49,32.04,75.97,43.48c6.48,11.44-2.77,22.7-8.55,27.9-5.79,5.2-20.03-15.09-14.87-15.77,0,0-3.47-.4-2.5-4.85.77-3.55-5.04-5.05-8.76-6.61-1.91-.8-3.96-1.24-6.03-1.24l-49.44-16.29s1.05-3.5,5.61-11.56c3.01-5.32,8.58-14.54,8.58-14.54"/>
  <path class="cls-19" d="M240.94,178.66c-.13.45-1.32,6.75,3.89,5.21s1.83-10.12,1.83-10.12l-7.7-21.56,12.32-8.14,10.12,20.31s-2.21-1.16-4.11,2.05c-1.69,2.86-2.35,6.82,2.49,6.97,5.58.17,3.37-8.58,3.37-8.58l-10.92-24.56-16.13,11.07,1.03,2.79,8.43,20.75s-3.59.22-4.62,3.81Z"/>
  <path class="cls-19" d="M230.61,59.44l8.27,18.89s-.27,4.55-4.45,5.21-3.36-5.43-.87-6.5c.67-.29,2.72-.82,2.72-.82l-6.36-16.41.69-.36Z"/>
  <path class="cls-19" d="M48.05,54.08c-.11.38-1.13,5.78,3.33,4.46s1.57-8.67,1.57-8.67l-6.6-18.47,10.55-6.97,8.67,17.4s-1.89-1-3.52,1.76c-1.44,2.45-2.01,5.84,2.14,5.97,4.78.14,2.89-7.35,2.89-7.35l-9.36-21.04-13.82,9.48.88,2.39,7.22,17.78s-3.08.19-3.96,3.27Z"/>
  <path class="cls-19" d="M53.05,76.54c-3.25-1.34-10.19-6.58-10.19-6.58l3.55,7.19s0,0,0,0l.05.12-.06-.12s-.08.05-.11.07l.23.22,7.73,19.94s-2.57.67-3.41,1.03c-3.12,1.34-4.15,8.98,1.08,8.15,5.23-.83,5.58-6.53,5.58-6.53l-10.07-23.01c2.52.26,7.77,2.98,7.77,2.98,1.46.52,2.52,1.66,3.26,2.84,1,1.58,1.51,3.42,1.62,5.29l.29,5.06.9.14.1-8.61c-.83-5.3-8.33-8.2-8.33-8.2Z"/>
  <path class="cls-19" d="M46.25,118.03l7.12,16.26s-.24,3.91-3.83,4.48-2.89-4.68-.74-5.6c.58-.25,2.34-.71,2.34-.71l-5.47-14.12.59-.31Z"/>
  <path class="cls-19" d="M261.78,88.57c-2.96-1.22-9.28-5.99-9.28-5.99l3.23,6.55s0,0,0,0l.04.11-.05-.11s-.07.04-.1.07l.21.2,7.04,18.15s-2.34.61-3.1.94c-2.84,1.22-3.78,8.17.99,7.42,4.76-.75,5.08-5.94,5.08-5.94l-9.17-20.95c2.3.24,7.08,2.71,7.08,2.71,1.33.47,2.29,1.51,2.97,2.58.91,1.44,1.38,3.11,1.47,4.81l.26,4.61.81.13.09-7.84c-.75-4.83-7.58-7.46-7.58-7.46Z"/>
</svg>