<?xml version="1.0" encoding="UTF-8"?>
<svg id="Laag_1" xmlns="http://www.w3.org/2000/svg" xmlns:xlink="http://www.w3.org/1999/xlink" viewBox="0 0 345.4 500.9">
  <defs>
    <style>
      .cls-1 {
        stroke: #97c66f;
        stroke-width: 4px;
      }

      .cls-1, .cls-2, .cls-3, .cls-4, .cls-5, .cls-6, .cls-7, .cls-8, .cls-9, .cls-10, .cls-11, .cls-12, .cls-13, .cls-14, .cls-15, .cls-16, .cls-17, .cls-18, .cls-19 {
        stroke-miterlimit: 10;
      }

      .cls-1, .cls-2, .cls-14, .cls-19 {
        fill: none;
      }

      .cls-2, .cls-3, .cls-4, .cls-6, .cls-7, .cls-8, .cls-9, .cls-10, .cls-11, .cls-12, .cls-13, .cls-14, .cls-15, .cls-16, .cls-17, .cls-18, .cls-19 {
        stroke: #1d1d1b;
      }

      .cls-2, .cls-3, .cls-8, .cls-10, .cls-15, .cls-17 {
        stroke-width: .75px;
      }

      .cls-3, .cls-20, .cls-6, .cls-13 {
        fill: #1d1d1b;
      }

      .cls-4 {
        fill: url(#Naamloos_verloop_3);
      }

      .cls-4, .cls-11, .cls-12 {
        stroke-width: 2px;
      }

      .cls-5 {
        fill: #fff;
        stroke: #fff;
      }

      .cls-5, .cls-6, .cls-7, .cls-14 {
        stroke-width: .5px;
      }

      .cls-7, .cls-8 {
        fill: #97c66f;
      }

      .cls-9 {
        fill: #7f4112;
      }

      .cls-10 {
        fill: #ed82b3;
      }

      .cls-11 {
        fill: url(#Naamloos_verloop_3-2);
      }

      .cls-12 {
        fill: url(#Naamloos_verloop_3-3);
      }

      .cls-13 {
        stroke-width: .25px;
      }

      .cls-15 {
        fill: #92a677;
      }

      .cls-16 {
        fill: url(#Naamloos_verloop_4);
      }

      .cls-17 {
        fill: #91a677;
      }

      .cls-18 {
        fill: #28509d;
      }
    </style>
    <linearGradient id="Naamloos_verloop_3" data-name="Naamloos verloop 3" x1="1" y1="228.06" x2="270.71" y2="228.06" gradientUnits="userSpaceOnUse">
      <stop offset="0" stop-color="#fff"/>
      <stop offset=".09" stop-color="#e9edf5"/>
      <stop offset=".54" stop-color="#8198c6"/>
      <stop offset=".85" stop-color="#4063a9"/>
      <stop offset="1" stop-color="#274f9e"/>
    </linearGradient>
    <linearGradient id="Naamloos_verloop_4" data-name="Naamloos verloop 4" x1="9.62" y1="436.85" x2="42.67" y2="436.85" gradientUnits="userSpaceOnUse">
      <stop offset="0" stop-color="#fff"/>
      <stop offset=".09" stop-color="#e9edf5"/>
      <stop offset=".54" stop-color="#8198c6"/>
      <stop offset=".85" stop-color="#4063a9"/>
      <stop offset="1" stop-color="#274f9e"/>
    </linearGradient>
    <linearGradient id="Naamloos_verloop_3-2" data-name="Naamloos verloop 3" x1="71.63" y1="2057.41" x2="144.28" y2="2057.41" gradientTransform="translate(-802.07 -1485.16) rotate(-29.34) scale(1.07 .94)" xlink:href="#Naamloos_verloop_3"/>
    <linearGradient id="Naamloos_verloop_3-3" data-name="Naamloos verloop 3" x1="597.65" y1="1935.37" x2="721.08" y2="1935.37" gradientTransform="translate(-1688.4 1141.53) rotate(48.19) scale(.71 -1)" xlink:href="#Naamloos_verloop_3"/>
  </defs>
  <path class="cls-4" d="M236.95,248.44c9.47,3.95,8.4,35.21,2.62,37.83s6.83,9.84,14.05,14.29c13.66,8.41,7.88,4.73,7.88,4.73l5.78,3.68c1.23,1.23,7.88,7.09-1.58,17.34-9.46,10.25-36.79-2.63-36.79-2.63-5.41-4.62-25.05-3.33-42.57-21.2-2.02-2.06-9.85,8.46-16.77,11.39-22.77,9.64-46.84,2.27-47.3,2.36-5.24,1.05-15.75-1.94-9.02,22.17,1.85,6.64,7.56,15.95,12.55,20.7,19.42,18.51,10.33,24.96-2.64,32.53-12.61,7.36-36.79-20.5-36.79-20.5-46.25-19.97-9.68-57.27-39.55-59.29-18.54-1.25-2.14,124.25-4.73,132.53-5.43,17.34-25.07,10.31-27.85,2.28-4.73-13.66-10.77-63.85-12.48-97.59-.99-19.56-2.03-60.54,3.85-80.13,4.73-15.77,16.55-27.59,35.47-20.5,4.73,1.78-.86-1.52-1.45-20.5-1.05-34.16,25.71-85.94,25.71-85.94-5.78-15.24,8.41-35.74,8.41-35.74-2.63-11.04,6.83-29.96,8.41-35.74s8.93-7.36,7.54-17.87c-1.39-10.51,1.39-17.34,1.39-17.34-5.26-22.6,5.78-33.11,9.46-34.16s2.63,3.15,8.93,5.26,3.68,3.15,6.83,7.88c3.15,4.73,17.87,19.45,18.67,19.45s16.94-.19,20.75-.53c1.73-.15,17.7,5.79,21.55,2.63,2.96-2.43,38.89-21.55,38.89-21.55,0,0,8.41,1.05-3.15,25.23s-1.05,32.58,2.1,44.15-7.88,8.93-8.41,27.33c0,0,5.19,11.28,4.34,14.38,0,0,15.27,39.01,7.38,64.94-4.38,14.4-.45,21.63,3.92,25.21,5.04,4.13,8.8,9.61,10.37,15.93l4.22,16.97"/>
  <path class="cls-2" d="M141.3,72.11s-12.88-42.31-28.91-42.57"/>
  <path class="cls-2" d="M175.35,73.69s10.8-15.28,25.08-18.92"/>
  <path class="cls-2" d="M172.19,80.61s10.19-12.61,25.25-13.84"/>
  <line class="cls-2" x1="171.42" y1="72.59" x2="189.12" y2="51.97"/>
  <path class="cls-2" d="M141.3,60.49s-8.87-25.84-12.28-27.42"/>
  <path class="cls-6" d="M143.67,92.13s-5.99-13.09-12.29-16.76c-3.15-1.84-9.75-.29-13.8.94-2.77.84-5.72.98-8.52.24-1.29-.34-4.09-2.24-2.51-1.34.26,1.2,21.88-5.72,28.61-1.88,0,0,7.61,6.38,8.51,18.79Z"/>
  <path class="cls-15" d="M140.4,85.99c.6,1.17-.7,6.99-.7,6.99-26.15,6.11-22.06-16.9-22.06-16.9l8.36-1.74c.56.36,6.84-3.13,14.4,11.65Z"/>
  <path class="cls-3" d="M126.3,75.42s-2.89,12.74,1.97,15.9c4.86,3.15,6.51-12.22,6.51-12.22,0,0-3.88-6.96-8.48-3.68Z"/>
  <path class="cls-5" d="M134.78,79.1c-.45-1.45-4.67,0-4.67,0-2.36,4.07,4.1,3.66,4.1,3.66l.57-3.66Z"/>
  <path class="cls-2" d="M190.19,80.33c-5.29-1.01-11.66-4.34-15-2.16-6.28,4.1-9.42,11.79-10.75,16.43-.58,2.02-.82,3.35-.82,3.35,0,0,12.18,8.04,22.16.42,0,0,5.93-4.69,5.5-14.82"/>
  <path class="cls-6" d="M164.44,94.6s7.55-11.43,14.01-13.96c3.23-1.27,9.21,1.15,12.84,2.91,2.48,1.2,5.24,1.76,7.98,1.48,1.26-.13,4.17-1.51,2.56-.89-.42,1.09-19.74-8.58-26.63-5.96,0,0-8.09,4.89-10.75,16.43Z"/>
  <path class="cls-17" d="M168.41,89.3c-.73,1.01-.36,6.68-.36,6.68,23.7,9.57,23.22-12.67,23.22-12.67l-7.61-2.86c-.58.25-5.98-3.95-15.25,8.85Z"/>
  <path class="cls-3" d="M183.22,81.42s.85,12.41-4.18,14.66c-5.03,2.25-4.33-12.44-4.33-12.44,0,0,4.67-5.98,8.51-2.22Z"/>
  <path class="cls-5" d="M174.71,83.64c.64-1.29,4.39.68,4.39.68,1.62,4.18-4.39,2.84-4.39,2.84v-3.52Z"/>
  <path class="cls-18" d="M148.68,109.29c.23,1.02-14.43-1.31-19.7.56-4.1,1.45-7.94,13.98,8.46,15.21,3.23.24,6.41-.89,8.82-3.05l4.95-4.43"/>
  <path class="cls-18" d="M161.99,108.15c-.03,2.01,8.39-1.4,13.01,4.1.89,1.06,1.84,2.81,1.24,4.06-1.4,2.93-4.9,8.96-12.62,8.82-6.16-.11-5.93-6.34-5.93-6.34"/>
  <path class="cls-2" d="M150.13,108.29s3.53-7.71-6.15-12.54c0,0-.03-1.42-.31-3.61-.64-5.03-2.66-13.52-8.51-18.79-3.12-2.8-8.8.32-14.46.35-13.32.07-9.18,3.55-8.31,6.92,1.46,5.63,7.19,20.45,31.58,15.13"/>
  <path class="cls-2" d="M160.97,107.41s-2.87-7.49,2.1-9.46"/>
  <path class="cls-18" d="M155.67,118.84c1.31.13,2.63-.19,3.74-.91,2.1-1.37,5.64-3.72,5.8-4.36.48-1.93-2.5-6.98-8.54-6.05h-1.99c-6.04-.93-9.02,4.12-8.54,6.05.16.65,3.69,3,5.8,4.36,1.11.72,2.42,1.04,3.74.91"/>
  <path class="cls-3" d="M153.55,118.49s-.61-8.24-6.46-7.12"/>
  <path class="cls-3" d="M158.61,118.49s-.27-7.72,6.93-6.55"/>
  <path class="cls-14" d="M90,104.67c8.67-.82,49.4,12.32,49.4,12.32,0,0-41.91-6.83-44.67-2.63"/>
  <path class="cls-14" d="M67.27,125.92c3.22-5.92,70.42-8.35,70.42-8.35,0,0-56.87,10.29-63.96,21.05"/>
  <path class="cls-14" d="M169.09,116.23s38.19-19.27,74.28-14.36"/>
  <path class="cls-14" d="M169.09,116.24s41.84-.31,45.92,4.51"/>
  <path class="cls-14" d="M169.83,116.3s28.34-1.58,54.62,10.25"/>
  <path class="cls-14" d="M169.09,116.99s2.56.01,6.45.28c9.98.7,28.71,3.13,35.33,11.54"/>
  <path class="cls-14" d="M200.85,131.25s-27.06-13.36-32.12-13.67"/>
  <path class="cls-19" d="M154.94,119.21c.07,6.39-11.67,9.61-12.56,8.89"/>
  <path class="cls-19" d="M154.94,119.21c.73,8.89,12.14,10.15,10.32,9.6"/>
  <path class="cls-20" d="M254.75,320.34s8.89,7.49,11.35,4.6"/>
  <path class="cls-20" d="M259.85,313.72s7.76,8.66,10.59,6.14"/>
  <path class="cls-20" d="M114.94,382.53s5.62,10.17,8.95,8.36"/>
  <path class="cls-20" d="M123.18,378.37s5.03,10.48,8.45,8.86"/>
  <path class="cls-9" d="M89.6,499.88c-.11.33-.16.67-.17,1.02"/>
  <path class="cls-16" d="M9.62,419.44l8.79,6.31,10.51-6.31,12.3,4.97s7,27.83-9.81,29.61-18.58-7.01-21.79-34.58Z"/>
  <path class="cls-11" d="M221.12,178.54s48.49-44.14,52.18-56.74c3.69-12.6-8.48-19.68-15.63-22.44-7.15-2.75-16.46,20.54-11.08,19.39,0,0-3.41,1.54-1.32,5.26,1.66,2.96-3.83,6.3-7.2,8.99-1.73,1.38-3.69,2.48-5.79,3.18l-16.17,5.83s.22,6.22,2.89,13.66c3.68,10.25,2.63,21.81,2.63,21.81"/>
  <path class="cls-12" d="M61.98,149.78s36.4,72.61,33.26,83.82c-3.14,11.21-15.97,16.3-22.84,18.08-6.87,1.78-3.02-19.14.63-17.69,0,0-1.91-1.62,1.48-4.66,2.7-2.42.03-5.77-1.31-8.38-.69-1.34-1.69-2.45-2.98-3.23l-22.42-32.72s2.89-9.33,6.57-18.53c2.11-5.27,7.75-17.47,7.75-17.47"/>
  <path class="cls-20" d="M46.91,54.08c-.11.38-1.13,5.78,3.33,4.46s1.57-8.67,1.57-8.67l-6.6-18.47,10.55-6.97,8.67,17.4s-1.89-1-3.52,1.76c-1.44,2.45-2.01,5.84,2.14,5.97,4.78.14,2.89-7.35,2.89-7.35l-9.36-21.04-13.82,9.48.88,2.39,7.22,17.78s-3.08.19-3.96,3.27Z"/>
  <path class="cls-20" d="M51.9,76.54c-3.25-1.34-10.19-6.58-10.19-6.58l3.55,7.19s0,0,0,0l.05.12-.06-.12s-.08.05-.11.07l.23.22,7.73,19.94s-2.57.67-3.41,1.03c-3.12,1.34-4.15,8.98,1.08,8.15,5.23-.83,5.58-6.53,5.58-6.53l-10.07-23.01c2.52.26,7.77,2.98,7.77,2.98,1.46.52,2.52,1.66,3.26,2.84,1,1.58,1.51,3.42,1.62,5.29l.29,5.06.9.14.1-8.61c-.83-5.3-8.33-8.2-8.33-8.2Z"/>
  <path class="cls-20" d="M45.11,118.03l7.12,16.26s-.24,3.91-3.83,4.48-2.89-4.68-.74-5.6c.58-.25,2.34-.71,2.34-.71l-5.47-14.12.59-.31Z"/>
  <g>
    <rect class="cls-10" x="224.84" y="43.23" width="63.55" height="87.2" rx="12" ry="12" transform="translate(-5.35 17.8) rotate(-3.93)"/>
    <ellipse class="cls-8" cx="255.54" cy="65.85" rx="10.58" ry="9.89" transform="translate(-3.91 17.68) rotate(-3.93)"/>
    <ellipse class="cls-8" cx="257.19" cy="104.39" rx="21.82" ry="20.39" transform="translate(-6.55 17.88) rotate(-3.93)"/>
    <ellipse class="cls-13" cx="255.74" cy="66.1" rx="4.91" ry="4.59" transform="translate(-3.93 17.69) rotate(-3.93)"/>
    <ellipse class="cls-13" cx="257.92" cy="104.61" rx="10.01" ry="9.36" transform="translate(-6.57 17.93) rotate(-3.93)"/>
    <rect class="cls-7" x="241.81" y="131.67" width="10.59" height="12" transform="translate(-8.86 17.27) rotate(-3.93)"/>
    <rect class="cls-7" x="267.64" y="129.84" width="10.59" height="12" transform="translate(-8.67 19.04) rotate(-3.93)"/>
    <g>
      <path class="cls-1" d="M301.19,98.98s5.55-11.94-1.45-21.13"/>
      <path class="cls-1" d="M312.76,105.97s11.62-19.67-3.41-37.57"/>
      <path class="cls-1" d="M324.86,113.87s18.16-24.13-2.93-55.37"/>
    </g>
  </g>
  <path class="cls-20" d="M296.97,213.29c-2.96-1.22-9.28-5.99-9.28-5.99l3.23,6.55s0,0,0,0l.04.11-.05-.11s-.07.04-.1.07l.21.2,7.04,18.15s-2.34.61-3.1.94c-2.84,1.22-3.78,8.17.99,7.42,4.76-.75,5.08-5.94,5.08-5.94l-9.17-20.95c2.3.24,7.08,2.71,7.08,2.71,1.33.47,2.29,1.51,2.97,2.58.91,1.44,1.38,3.11,1.47,4.81l.26,4.61.81.13.09-7.84c-.75-4.83-7.58-7.46-7.58-7.46Z"/>
  <path class="cls-20" d="M323.31,198.17l8.27,18.89s-.27,4.55-4.45,5.21-3.36-5.43-.87-6.5c.67-.29,2.72-.82,2.72-.82l-6.36-16.41.69-.36Z"/>
  <path class="cls-20" d="M304.63,170.71c-.13.45-1.32,6.75,3.89,5.21s1.83-10.12,1.83-10.12l-7.7-21.56,12.32-8.14,10.12,20.31s-2.21-1.16-4.11,2.05c-1.69,2.86-2.35,6.82,2.49,6.97,5.58.17,3.37-8.58,3.37-8.58l-10.92-24.56-16.13,11.07,1.03,2.79,8.43,20.75s-3.59.22-4.62,3.81Z"/>
</svg>