<?xml version="1.0" encoding="UTF-8"?>
<svg id="Laag_1" xmlns="http://www.w3.org/2000/svg" xmlns:xlink="http://www.w3.org/1999/xlink" viewBox="0 0 247.67 543.91">
  <defs>
    <style>
      .cls-1 {
        letter-spacing: -.02em;
      }

      .cls-2, .cls-3 {
        stroke-width: .75px;
      }

      .cls-2, .cls-3, .cls-4, .cls-5, .cls-6, .cls-7, .cls-8, .cls-9, .cls-10, .cls-11, .cls-12 {
        stroke-miterlimit: 10;
      }

      .cls-2, .cls-3, .cls-4, .cls-6, .cls-7, .cls-8, .cls-9, .cls-10, .cls-11, .cls-12 {
        stroke: #1d1d1b;
      }

      .cls-2, .cls-9, .cls-12 {
        fill: none;
      }

      .cls-3, .cls-13, .cls-6, .cls-14, .cls-15 {
        fill: #1d1d1b;
      }

      .cls-4 {
        fill: url(#Naamloos_verloop_3);
      }

      .cls-4, .cls-7, .cls-8 {
        stroke-width: 2px;
      }

      .cls-5 {
        fill: #ee728a;
        stroke: #010101;
      }

      .cls-6, .cls-9 {
        stroke-width: .5px;
      }

      .cls-16 {
        letter-spacing: 0em;
      }

      .cls-14 {
        font-size: 17.13px;
      }

      .cls-14, .cls-15 {
        font-family: MyriadPro-Regular, 'Myriad Pro';
      }

      .cls-15 {
        font-size: 12.56px;
      }

      .cls-7 {
        fill: url(#Naamloos_verloop_3-2);
      }

      .cls-17 {
        letter-spacing: 0em;
      }

      .cls-8 {
        fill: url(#Naamloos_verloop_3-3);
      }

      .cls-18 {
        letter-spacing: -.02em;
      }

      .cls-10 {
        fill: url(#Naamloos_verloop_4);
      }

      .cls-11 {
        fill: #28509d;
      }
    </style>
    <linearGradient id="Naamloos_verloop_3" data-name="Naamloos verloop 3" x1="1.45" y1="271.95" x2="246.67" y2="271.95" gradientUnits="userSpaceOnUse">
      <stop offset="0" stop-color="#fff"/>
      <stop offset=".09" stop-color="#e9edf5"/>
      <stop offset=".54" stop-color="#8198c6"/>
      <stop offset=".85" stop-color="#4063a9"/>
      <stop offset="1" stop-color="#274f9e"/>
    </linearGradient>
    <linearGradient id="Naamloos_verloop_3-2" data-name="Naamloos verloop 3" x1="156.99" y1="1763.52" x2="216.4" y2="1763.52" gradientTransform="translate(740.72 1793.55) rotate(167.78) scale(1.07 .94)" xlink:href="#Naamloos_verloop_3"/>
    <linearGradient id="Naamloos_verloop_3-3" data-name="Naamloos verloop 3" x1="593.12" y1="1827.78" x2="657.82" y2="1827.78" gradientTransform="translate(-936.04 1866.88) rotate(12.22) scale(1 -1)" xlink:href="#Naamloos_verloop_3"/>
    <linearGradient id="Naamloos_verloop_4" data-name="Naamloos verloop 4" x1="10.88" y1="524.95" x2="44.33" y2="524.95" gradientUnits="userSpaceOnUse">
      <stop offset="0" stop-color="#fff"/>
      <stop offset=".09" stop-color="#e9edf5"/>
      <stop offset=".54" stop-color="#8198c6"/>
      <stop offset=".85" stop-color="#4063a9"/>
      <stop offset="1" stop-color="#274f9e"/>
    </linearGradient>
  </defs>
  <path class="cls-4" d="M239.6,249.53c9.51,3.96,8.44,35.36,2.63,38-5.81,2.64-3.43,18.74-5.81,26.92s-25.07,25.07-25.07,25.07l2.11,2.11c9.24,6.07,24.81,19.8,15.31,30.09s-25.34-1.85-25.34-1.85c-12.67-10.82-18.48-5.01-21.64-9.24-2.52-3.36-34.03-.38-46.87.99-2.19.23-3.19,2.82-1.77,4.5,12.36,14.52,3.83,20.43-7.85,27.24-12.67,7.39-36.95-20.59-36.95-20.59-46.45-20.06-51.2,13.72-48.56,32.2s6.15,122.73,3.17,130.91c-3.85,10.54-24.13,8.07-26.92,0-4.75-13.72-19.88-152.95-12.67-185.28,6.45-28.9,28.51-26.92,28.51-26.92-16.89-18.48-10.88-45.92-11.93-80.24-1.06-34.31,47.3-100.82,47.3-100.82-5.81-15.31,8.45-35.9,8.45-35.9-2.64-11.09,6.86-30.09,8.45-35.9s8.97-7.39,7.57-17.95,1.4-17.42,1.4-17.42c-5.28-22.7,5.81-33.26,9.5-34.31s2.64,3.17,8.97,5.28,3.7,3.17,6.86,7.92,17.95,19.53,18.75,19.53,17.01-.19,20.84-.53c1.74-.15,17.77,5.82,21.64,2.64,2.97-2.44,39.06-21.64,39.06-21.64,0,0,8.45,1.06-3.17,25.34-11.61,24.28-1.06,32.73,2.11,44.34s-7.92,8.97-8.45,27.45c0,0,5.21,11.33,4.36,14.45,0,0,15.33,39.18,7.42,65.23-4.4,14.47-.45,21.73,3.93,25.32,5.06,4.15,8.84,9.65,10.41,16l4.24,17.05"/>
  <path class="cls-2" d="M143.52,72.43s-12.93-42.49-29.03-42.76"/>
  <path class="cls-2" d="M177.71,74.01s10.85-15.35,25.19-19"/>
  <path class="cls-2" d="M174.55,80.96s10.23-12.67,25.36-13.9"/>
  <line class="cls-2" x1="173.77" y1="72.9" x2="191.55" y2="52.19"/>
  <path class="cls-2" d="M143.52,60.75s-8.91-25.95-12.34-27.54"/>
  <path class="cls-6" d="M145.9,92.54s-6.02-13.15-12.34-16.83c-3.16-1.84-9.79-.29-13.86.95-2.78.85-5.75.98-8.56.24-1.3-.34-4.1-2.25-2.52-1.34.26,1.21,21.98-5.74,28.74-1.89,0,0,7.65,6.41,8.55,18.88Z"/>
  <path class="cls-12" d="M192.63,80.68c-5.31-1.01-11.71-4.36-15.07-2.17-6.3,4.12-9.46,11.85-10.8,16.5-.58,2.03-.82,3.36-.82,3.36,0,0,28.42-13.32,33.3-12.92"/>
  <path class="cls-6" d="M166.76,95.01s7.59-11.48,14.07-14.02c3.25-1.27,9.25,1.16,12.9,2.92,2.49,1.21,5.26,1.77,8.02,1.48,1.27-.13,4.19-1.51,2.57-.9-.43,1.1-19.83-8.62-26.75-5.99,0,0-8.13,4.91-10.8,16.5Z"/>
  <path class="cls-11" d="M150.93,109.77c.23,1.03-14.49-1.31-19.79.56-4.11,1.46-7.97,14.05,8.5,15.28,3.24.24,6.44-.9,8.85-3.07l4.97-4.45"/>
  <path class="cls-11" d="M164.3,108.62c-.03,2.02,8.43-1.4,13.07,4.12.9,1.07,1.85,2.82,1.25,4.08-1.41,2.95-4.92,9-12.68,8.86-6.18-.11-5.95-6.37-5.95-6.37"/>
  <path class="cls-2" d="M152.38,108.76s3.54-7.74-6.18-12.6c0,0-.03-1.43-.31-3.62-.64-5.05-2.67-13.58-8.55-18.88-3.13-2.82-8.84.32-14.52.35"/>
  <path class="cls-2" d="M163.28,107.88s-2.88-7.53,2.11-9.5"/>
  <path class="cls-11" d="M157.96,119.36c1.32.13,2.64-.19,3.75-.91,2.11-1.37,5.66-3.73,5.82-4.38.48-1.94-2.51-7.01-8.58-6.08h-2c-6.07-.93-9.06,4.14-8.58,6.08.16.65,3.71,3.01,5.82,4.38,1.11.72,2.43,1.05,3.75.91"/>
  <path class="cls-3" d="M155.82,119.01s-.62-8.28-6.49-7.16"/>
  <path class="cls-3" d="M160.9,119.01s-.27-7.75,6.96-6.58"/>
  <path class="cls-9" d="M91.99,105.13c8.71-.82,49.62,12.37,49.62,12.37,0,0-42.1-6.86-44.87-2.64"/>
  <path class="cls-9" d="M69.16,126.48c3.23-5.94,70.73-8.38,70.73-8.38,0,0-57.12,10.34-64.25,21.14"/>
  <path class="cls-9" d="M171.44,116.74s38.36-19.36,74.61-14.43"/>
  <path class="cls-9" d="M171.44,116.75s42.03-.31,46.12,4.53"/>
  <path class="cls-9" d="M172.17,116.81s28.47-1.58,54.86,10.29"/>
  <path class="cls-9" d="M171.44,117.5s2.57.01,6.48.28c10.03.7,28.84,3.14,35.48,11.59"/>
  <path class="cls-9" d="M203.33,131.83s-27.18-13.42-32.26-13.73"/>
  <path class="cls-12" d="M157.22,119.73c.07,6.42-11.72,9.66-12.62,8.93"/>
  <path class="cls-12" d="M157.22,119.73c.73,8.93,12.2,10.2,10.36,9.64"/>
  <path class="cls-13" d="M215.43,366.33s5.28,10.41,8.69,8.71"/>
  <path class="cls-13" d="M221.11,362.68s5.93,10.06,9.22,8.15"/>
  <path class="cls-13" d="M117.05,384.22s5.65,10.22,8.99,8.4"/>
  <path class="cls-13" d="M125.32,380.03s5.05,10.53,8.49,8.9"/>
  <path class="cls-7" d="M220.18,193.75s-44.87,18.73-52.14,29.73,2.32,21.4,8.37,26.16c6.05,4.76,21.88-14.85,16.37-15.34,0,0,3.72-.47,2.82-4.66-.72-3.33,5.54-4.92,9.57-6.5,2.07-.81,4.27-1.29,6.49-1.34l15.73-3.4s-5.24-1.78-6.9-9.69c-1.66-7.91-.38-12.91-.38-12.91"/>
  <path class="cls-8" d="M42.62,183.14s41.6,18.63,48.11,30.13c6.51,11.49-2.78,22.8-8.59,28.03-5.81,5.22-20.12-15.16-14.93-15.84,0,0-3.48-.4-2.51-4.87.77-3.56-5.06-5.07-8.8-6.64-1.92-.81-3.97-1.25-6.06-1.24l-19.69-5.01,2.8-8.16c2-5.81,7.52-13.48,7.52-13.48"/>
  <path class="cls-10" d="M10.88,507.1l8.83,6.34,10.56-6.34,13.47,6.34s4.74,30.77-12.54,29.3-17.09-7.95-20.31-35.64Z"/>
  <path class="cls-12" d="M113.37,77.01s32.2,16.1,32.6,19.93"/>
  <path class="cls-12" d="M133.68,94.82s4.86-2.51,4.08-4.57"/>
  <path class="cls-12" d="M126.56,90.68s4.85-2.54,4.06-4.59"/>
  <path class="cls-12" d="M112.28,82.49s5.33-1.25,5.08-3.43"/>
  <path class="cls-12" d="M120.22,86.84s4.75-2.71,3.89-4.73"/>
  <path class="cls-12" d="M201.81,89.51s-5.3-1.35-5.01-3.53"/>
  <path class="cls-12" d="M196.1,91.19s-5.37-1.06-5.19-3.25"/>
  <path class="cls-12" d="M189.97,94.16s-5.1-1.97-4.56-4.1"/>
  <path class="cls-12" d="M183.63,96.99s-4.82-2.58-4.02-4.63"/>
  <path class="cls-5" d="M74.63,24.98c-8.91-16.2-22.17.51-22.17.51l-1.98,3.38,1.63-3.65s4.45-20.87-13.72-17.43c-16.88,3.2,0,36.28,2.47,40.95.09.16.09.36,0,.52h0s.09-.02.25-.05c.03.05.04.07.04.07l.04-.09c3.91-.79,41.89-8.85,33.44-24.22Z"/>
  <path class="cls-5" d="M234.99,418.57c-12.15-22.1-30.25.7-30.25.7l-2.69,4.6,2.22-4.98s6.07-28.47-18.72-23.77c-23.03,4.37,0,49.49,3.37,55.86.12.22.12.49.01.71h0s.12-.02.33-.07c.04.06.05.1.05.1l.06-.12c5.34-1.07,57.14-12.07,45.61-33.04Z"/>
  <text class="cls-15" transform="translate(39.81 35.5) rotate(32.14)"><tspan class="cls-18" x="0" y="0">P</tspan><tspan class="cls-17" x="6.48" y="0">r</tspan><tspan x="10.64" y="0">r</tspan></text>
  <text class="cls-14" transform="translate(184.97 430.84) rotate(32.14)"><tspan class="cls-1" x="0" y="0">P</tspan><tspan class="cls-16" x="8.84" y="0">r</tspan><tspan x="14.51" y="0">r</tspan></text>
  <path class="cls-5" d="M60.05,104.6c-12.15-22.1-30.25.7-30.25.7l-2.69,4.6,2.22-4.98s6.07-28.47-18.72-23.77c-23.03,4.37,0,49.49,3.37,55.86.12.22.12.49.01.71h0s.12-.02.33-.07c.04.06.05.1.05.1l.06-.12c5.34-1.07,57.14-12.07,45.61-33.04Z"/>
  <text class="cls-14" transform="translate(11.37 118.14) rotate(32.14)"><tspan class="cls-1" x="0" y="0">P</tspan><tspan class="cls-16" x="8.84" y="0">r</tspan><tspan x="14.51" y="0">r</tspan></text>
  <path class="cls-5" d="M139.27,459.32c-8.91-16.2-22.17.51-22.17.51l-1.98,3.38,1.63-3.65s4.45-20.87-13.72-17.43c-16.88,3.2,0,36.28,2.47,40.95.09.16.09.36,0,.52h0s.09-.02.25-.05c.03.05.04.07.04.07l.04-.09c3.91-.79,41.89-8.85,33.44-24.22Z"/>
  <text class="cls-15" transform="translate(104.45 469.83) rotate(32.14)"><tspan class="cls-18" x="0" y="0">P</tspan><tspan class="cls-17" x="6.48" y="0">r</tspan><tspan x="10.64" y="0">r</tspan></text>
</svg>