<?xml version="1.0" encoding="UTF-8"?>
<svg id="Laag_1" xmlns="http://www.w3.org/2000/svg" xmlns:xlink="http://www.w3.org/1999/xlink" viewBox="0 0 175.07 197.01">
  <defs>
    <style>
      .cls-1 {
        fill: url(#Naamloos_verloop_7-2);
      }

      .cls-1, .cls-2, .cls-3, .cls-4, .cls-5 {
        stroke: #1d1d1b;
        stroke-miterlimit: 10;
      }

      .cls-2 {
        fill: url(#Naamloos_verloop_7);
      }

      .cls-3 {
        fill: url(#Naamloos_verloop_7-3);
      }

      .cls-4 {
        fill: url(#Naamloos_verloop_4);
        stroke-width: 2px;
      }

      .cls-5 {
        fill: url(#Naamloos_verloop_7-4);
      }
    </style>
    <linearGradient id="Naamloos_verloop_7" data-name="Naamloos verloop 7" x1="-37.38" y1="-48.98" x2="-24.74" y2="-48.98" gradientTransform="translate(41.61 100.23) rotate(-10.55) scale(.66 1)" gradientUnits="userSpaceOnUse">
      <stop offset="0" stop-color="#fff"/>
      <stop offset=".19" stop-color="#d0cccb"/>
      <stop offset=".59" stop-color="#746763"/>
      <stop offset=".87" stop-color="#3a2722"/>
      <stop offset="1" stop-color="#240f09"/>
    </linearGradient>
    <linearGradient id="Naamloos_verloop_4" data-name="Naamloos verloop 4" x1="1" y1="113.64" x2="174.07" y2="113.64" gradientUnits="userSpaceOnUse">
      <stop offset="0" stop-color="#fff"/>
      <stop offset=".09" stop-color="#e9edf5"/>
      <stop offset=".54" stop-color="#8198c6"/>
      <stop offset=".85" stop-color="#4063a9"/>
      <stop offset="1" stop-color="#274f9e"/>
    </linearGradient>
    <linearGradient id="Naamloos_verloop_7-2" data-name="Naamloos verloop 7" x1="74.06" y1="48.71" x2="93.05" y2="48.71" gradientTransform="translate(48.64 -31.6) rotate(2.77)" xlink:href="#Naamloos_verloop_7"/>
    <linearGradient id="Naamloos_verloop_7-3" data-name="Naamloos verloop 7" x1="-397.65" y1="216.62" x2="-384.54" y2="216.62" gradientTransform="translate(461.49 -83.53) rotate(13.12) scale(.66 1)" xlink:href="#Naamloos_verloop_7"/>
    <linearGradient id="Naamloos_verloop_7-4" data-name="Naamloos verloop 7" x1="1321.06" y1="83.23" x2="1338.61" y2="83.23" gradientTransform="translate(1397.38 71.26) rotate(-174.11) scale(1 -1)" xlink:href="#Naamloos_verloop_7"/>
  </defs>
  <polygon class="cls-2" points="10.01 64.91 18.47 64.87 14.14 45.37 10.01 64.91"/>
  <g>
    <path class="cls-4" d="M75.12,92.04c-3.01-60.92,44.54-58.8,63.8-55.09,15.35,2.96,15.03,25.77,14.26,34.91-.15,1.83-1.65,3.3-3.66,3.77-12.78,3.02-6.38,22.24-6.38,22.24,0,0-3.01-37.61,22.87-14.3,25.88,23.31-18.44,68.93-22.87,80.52-15.09,39.45-62.8,34.11-91.6,26.73-13.71-3.51-19.5-15.3-26.68-25.55-3.21-4.59-5.43-15.87-7.07-21.04C7.44,111.78-2.62,87.58,2.27,74.9c2.45-6.34,4.82-9.01,7.22-9.89.35-.13.94-.19,1.68-.2,8.14-.12,15.14,5.15,16.41,12.23,1.66,9.23-.01,20.29-.01,20.29,0,0-4.21-43.97,15.05-60.39,19.26-16.42,47.79,8.01,47.79,8.01"/>
    <polygon class="cls-1" points="119.58 34.55 138.51 36.45 139.7 6.64 119.58 34.55"/>
    <polygon class="cls-3" points="155.52 76.73 163.28 79.68 168.21 60.29 155.52 76.73"/>
  </g>
  <polygon class="cls-5" points="73.2 33.51 55.86 30.62 60.28 1.86 73.2 33.51"/>
</svg>