<?xml version="1.0" encoding="UTF-8"?>
<svg id="Laag_1" xmlns="http://www.w3.org/2000/svg" xmlns:xlink="http://www.w3.org/1999/xlink" viewBox="0 0 258.62 555.86">
  <defs>
    <style>
      .cls-1, .cls-2, .cls-3, .cls-4, .cls-5, .cls-6, .cls-7, .cls-8, .cls-9, .cls-10, .cls-11, .cls-12, .cls-13, .cls-14, .cls-15, .cls-16 {
        stroke-miterlimit: 10;
      }

      .cls-1, .cls-2, .cls-3, .cls-5, .cls-6, .cls-7, .cls-8, .cls-9, .cls-10, .cls-11, .cls-12, .cls-13, .cls-14, .cls-15, .cls-16 {
        stroke: #1d1d1b;
      }

      .cls-1, .cls-2, .cls-12, .cls-14 {
        stroke-width: .75px;
      }

      .cls-1, .cls-10, .cls-16 {
        fill: none;
      }

      .cls-2, .cls-17, .cls-5 {
        fill: #1d1d1b;
      }

      .cls-3 {
        fill: url(#Naamloos_verloop_3);
      }

      .cls-3, .cls-8, .cls-9, .cls-11 {
        stroke-width: 2px;
      }

      .cls-4 {
        fill: #fff;
        stroke: #fff;
      }

      .cls-4, .cls-5, .cls-10 {
        stroke-width: .5px;
      }

      .cls-6 {
        fill: #96d5f0;
      }

      .cls-7 {
        fill: #7f4112;
      }

      .cls-8 {
        fill: url(#Naamloos_verloop_3-2);
      }

      .cls-9 {
        fill: url(#Naamloos_verloop_3-3);
      }

      .cls-11 {
        fill: #f2f2c0;
      }

      .cls-12 {
        fill: #92a677;
      }

      .cls-13 {
        fill: url(#Naamloos_verloop_4);
      }

      .cls-14 {
        fill: #91a677;
      }

      .cls-15 {
        fill: #28509d;
      }
    </style>
    <linearGradient id="Naamloos_verloop_3" data-name="Naamloos verloop 3" x1="4.77" y1="285.09" x2="248.91" y2="285.09" gradientUnits="userSpaceOnUse">
      <stop offset="0" stop-color="#fff"/>
      <stop offset=".09" stop-color="#e9edf5"/>
      <stop offset=".54" stop-color="#8198c6"/>
      <stop offset=".85" stop-color="#4063a9"/>
      <stop offset="1" stop-color="#274f9e"/>
    </linearGradient>
    <linearGradient id="Naamloos_verloop_3-2" data-name="Naamloos verloop 3" x1="-46.82" y1="1847.79" x2="12.33" y2="1847.79" gradientTransform="translate(546.18 1930.26) rotate(167.78) scale(1.07 .94)" xlink:href="#Naamloos_verloop_3"/>
    <linearGradient id="Naamloos_verloop_3-3" data-name="Naamloos verloop 3" x1="584.21" y1="1954.23" x2="648.63" y2="1954.23" gradientTransform="translate(-950.9 2005.78) rotate(12.22) scale(1 -1)" xlink:href="#Naamloos_verloop_3"/>
    <linearGradient id="Naamloos_verloop_4" data-name="Naamloos verloop 4" x1="14.53" y1="537.47" x2="47.83" y2="537.47" gradientUnits="userSpaceOnUse">
      <stop offset="0" stop-color="#fff"/>
      <stop offset=".09" stop-color="#e9edf5"/>
      <stop offset=".54" stop-color="#8198c6"/>
      <stop offset=".85" stop-color="#4063a9"/>
      <stop offset="1" stop-color="#274f9e"/>
    </linearGradient>
  </defs>
  <g>
    <path class="cls-3" d="M241.86,262.77c9.47,3.95,8.4,35.21,2.62,37.83s-3.42,18.66-5.78,26.8-24.96,24.96-24.96,24.96l2.1,2.1c9.2,6.04,24.7,19.71,15.24,29.96-9.46,10.25-25.23-1.84-25.23-1.84-12.61-10.77-18.39-4.99-21.55-9.2-2.51-3.34-33.88-.38-46.66.98-2.18.23-3.18,2.81-1.76,4.48,12.31,14.45,3.81,20.34-7.81,27.12-12.61,7.36-36.79-20.5-36.79-20.5-46.25-19.97-50.98,13.66-48.35,32.06s6.13,122.19,3.15,130.34c-3.83,10.5-24.02,8.03-26.8,0-4.73-13.66-19.79-152.28-12.61-184.47,6.42-28.77,28.38-26.8,28.38-26.8-16.82-18.39-10.83-45.72-11.88-79.88s47.09-100.38,47.09-100.38c-5.78-15.24,8.41-35.74,8.41-35.74-2.63-11.04,6.83-29.96,8.41-35.74s8.93-7.36,7.54-17.87c-1.39-10.51,1.39-17.34,1.39-17.34-5.26-22.6,5.78-33.11,9.46-34.16s2.63,3.15,8.93,5.26,3.68,3.15,6.83,7.88c3.15,4.73,17.87,19.45,18.67,19.45s16.94-.19,20.75-.53c1.73-.15,17.7,5.79,21.55,2.63,2.96-2.43,38.89-21.55,38.89-21.55,0,0,8.41,1.05-3.15,25.23s-1.05,32.58,2.1,44.15-7.88,8.93-8.41,27.33c0,0,5.19,11.28,4.34,14.38,0,0,15.27,39.01,7.38,64.94-4.38,14.4-.45,21.63,3.92,25.21,5.04,4.13,8.8,9.61,10.37,15.93l4.22,16.97"/>
    <path class="cls-1" d="M146.21,86.45s-12.88-42.31-28.91-42.57"/>
    <path class="cls-1" d="M180.25,88.02s10.8-15.28,25.08-18.92"/>
    <path class="cls-1" d="M177.1,94.94s10.19-12.61,25.25-13.84"/>
    <line class="cls-1" x1="176.33" y1="86.92" x2="194.03" y2="66.3"/>
    <path class="cls-1" d="M146.21,74.82s-8.87-25.84-12.28-27.42"/>
    <path class="cls-5" d="M148.58,106.47s-5.99-13.09-12.29-16.76c-3.15-1.84-9.75-.29-13.8.94-2.77.84-5.72.98-8.52.24-1.29-.34-4.09-2.24-2.51-1.34.26,1.2,21.88-5.72,28.61-1.88,0,0,7.61,6.38,8.51,18.79Z"/>
    <path class="cls-12" d="M145.31,100.33c.6,1.17-.7,6.99-.7,6.99-26.15,6.11-22.06-16.9-22.06-16.9l8.36-1.74c.56.36,6.84-3.13,14.4,11.65Z"/>
    <path class="cls-2" d="M131.21,89.75s-2.89,12.74,1.97,15.9c4.86,3.15,6.51-12.22,6.51-12.22,0,0-3.88-6.96-8.48-3.68Z"/>
    <path class="cls-4" d="M139.69,93.43c-.45-1.45-4.67,0-4.67,0-2.36,4.07,4.1,3.66,4.1,3.66l.57-3.66Z"/>
    <path class="cls-1" d="M195.1,94.66c-5.29-1.01-11.66-4.34-15-2.16-6.28,4.1-9.42,11.79-10.75,16.43-.58,2.02-.82,3.35-.82,3.35,0,0,12.18,8.04,22.16.42,0,0,5.93-4.69,5.5-14.82"/>
    <path class="cls-5" d="M169.35,108.93s7.55-11.43,14.01-13.96c3.23-1.27,9.21,1.15,12.84,2.91,2.48,1.2,5.24,1.76,7.98,1.48,1.26-.13,4.17-1.51,2.56-.89-.42,1.09-19.74-8.58-26.63-5.96,0,0-8.09,4.89-10.75,16.43Z"/>
    <path class="cls-14" d="M173.32,103.64c-.73,1.01-.36,6.68-.36,6.68,23.7,9.57,23.22-12.67,23.22-12.67l-7.61-2.86c-.58.25-5.98-3.95-15.25,8.85Z"/>
    <path class="cls-2" d="M188.13,95.76s.85,12.41-4.18,14.66c-5.03,2.25-4.33-12.44-4.33-12.44,0,0,4.67-5.98,8.51-2.22Z"/>
    <path class="cls-4" d="M179.62,97.97c.64-1.29,4.39.68,4.39.68,1.62,4.18-4.39,2.84-4.39,2.84v-3.52Z"/>
    <path class="cls-15" d="M153.59,123.63c.23,1.02-14.43-1.31-19.7.56-4.1,1.45-7.94,13.98,8.46,15.21,3.23.24,6.41-.89,8.82-3.05l4.95-4.43"/>
    <path class="cls-15" d="M166.9,122.48c-.03,2.01,8.39-1.4,13.01,4.1.89,1.06,1.84,2.81,1.24,4.06-1.4,2.93-4.9,8.96-12.62,8.82-6.16-.11-5.93-6.34-5.93-6.34"/>
    <path class="cls-1" d="M155.04,122.62s3.53-7.71-6.15-12.54c0,0-.03-1.42-.31-3.61-.64-5.03-2.66-13.52-8.51-18.79-3.12-2.8-8.8.32-14.46.35-13.32.07-9.18,3.55-8.31,6.92,1.46,5.63,7.19,20.45,31.58,15.13"/>
    <path class="cls-1" d="M165.88,121.74s-2.87-7.49,2.1-9.46"/>
    <path class="cls-15" d="M160.58,133.18c1.31.13,2.63-.19,3.74-.91,2.1-1.37,5.64-3.72,5.8-4.36.48-1.93-2.5-6.98-8.54-6.05h-1.99c-6.04-.93-9.02,4.12-8.54,6.05.16.65,3.69,3,5.8,4.36,1.11.72,2.42,1.04,3.74.91"/>
    <path class="cls-2" d="M158.46,132.82s-.61-8.24-6.46-7.12"/>
    <path class="cls-2" d="M163.52,132.82s-.27-7.72,6.93-6.55"/>
    <path class="cls-10" d="M94.91,119c8.67-.82,49.4,12.32,49.4,12.32,0,0-41.91-6.83-44.67-2.63"/>
    <path class="cls-10" d="M72.18,140.26c3.22-5.92,70.42-8.35,70.42-8.35,0,0-56.87,10.29-63.96,21.05"/>
    <path class="cls-10" d="M174,130.57s38.19-19.27,74.28-14.36"/>
    <path class="cls-10" d="M174,130.57s41.84-.31,45.92,4.51"/>
    <path class="cls-10" d="M174.74,130.64s28.34-1.58,54.62,10.25"/>
    <path class="cls-10" d="M174,131.32s2.56.01,6.45.28c9.98.7,28.71,3.13,35.33,11.54"/>
    <path class="cls-10" d="M205.76,145.58s-27.06-13.36-32.12-13.67"/>
    <path class="cls-16" d="M159.85,133.54c.07,6.39-11.67,9.61-12.56,8.89"/>
    <path class="cls-16" d="M159.85,133.54c.73,8.89,12.14,10.15,10.32,9.6"/>
    <path class="cls-17" d="M217.8,379.06s5.26,10.36,8.65,8.67"/>
    <path class="cls-17" d="M223.46,375.42s5.9,10.01,9.18,8.11"/>
    <path class="cls-17" d="M119.85,396.86s5.62,10.17,8.95,8.36"/>
    <path class="cls-17" d="M128.09,392.7s5.03,10.48,8.45,8.86"/>
    <path class="cls-8" d="M222.54,207.24s-44.67,18.64-51.91,29.6c-7.23,10.96,2.31,21.31,8.33,26.04,6.02,4.73,21.78-14.78,16.29-15.27,0,0,3.71-.47,2.81-4.64-.72-3.32,5.51-4.9,9.53-6.47,2.06-.81,4.25-1.28,6.47-1.34l15.66-3.38s-5.22-1.77-6.87-9.64c-1.65-7.87-.38-12.85-.38-12.85"/>
    <path class="cls-9" d="M45.76,196.67s41.42,18.55,47.9,29.99c6.48,11.44-2.77,22.7-8.55,27.9-5.79,5.2-20.03-15.09-14.87-15.77,0,0-3.47-.4-2.5-4.85.77-3.55-5.04-5.05-8.76-6.61-1.91-.8-3.96-1.24-6.03-1.24l-19.61-4.99,2.79-8.13c1.99-5.78,7.49-13.42,7.49-13.42"/>
    <path class="cls-7" d="M78.35,515.55c-.11.33-.16.67-.17,1.02"/>
    <g>
      <g>
        <path class="cls-11" d="M106.5,59.19c-4.51-.25-8.85-1.34-12.77-3.16-7.23-3.35-13.01-9.14-15.7-16.51-4.46-12.22,10.86-29.43,52.17-35.92,42.58-6.69,59.62.97,75.84,6.93,14.37,5.28,24.15,18.28,23.41,32.67-.29,5.64-2.25,10.93-7.55,13.95-12.02,6.85-84.13,3.75-115.39,2.05Z"/>
        <path class="cls-11" d="M130.74,86.11c-5.63,2.8-6.64-3.1-9.21-4.6s-3.75-.4-3.75-.4c0,0-12.85,5.99-15-2-2.14-7.99-20.14-4-20.14-4l12.43-19.18c15,10.79,122.54,3.6,122.54,3.6,0,0,11.43,21.58,8.43,19.18s-7.78-3.73-13.14-2.8c-1.74.3-7.71,11.19-11.57,7.19-3.86-4-11.14-2.4-11.14.4s-6.86,5.59-10.28,2.4-11.57-2.4-16.71.4-11.57,2.8-15-1.6c-3.43-4.4-9.85-2.4-9.85-2.4,0,0-7.07,3.53-7.6,3.8Z"/>
      </g>
      <path class="cls-11" d="M177.9,72.79l-7.71-11.19s5.43-7.46,4.86-15.98c-.57-8.52-.57-13.59-.57-13.59"/>
      <path class="cls-11" d="M200.18,71.19s-10.85-8.26-10.28-12.25,3.71-21.31,3.71-21.31"/>
      <path class="cls-11" d="M213.61,68.53s-6.28-4.79-1.71-12.52,2-12.79,2-12.79"/>
      <path class="cls-11" d="M129.63,71.46s5.2-7.87,3.14-14.38c-5.14-16.25-6.93-18.65-6.93-18.65"/>
      <path class="cls-11" d="M110.78,72.79s12-6.66,8.57-12.79-6-17.85-6-17.85"/>
      <path class="cls-11" d="M99.92,67.2s7.43-4.79,1.14-10.66c-6.28-5.86-4.57-18.11-4.57-18.11"/>
    </g>
    <path class="cls-13" d="M14.53,519.7l8.79,6.31,10.51-6.31,13.41,6.31s4.72,30.63-12.49,29.18-17.02-7.91-20.22-35.48Z"/>
  </g>
  <g>
    <path class="cls-6" d="M45.07,73.5c4.22-.35,7.35-4.11,7-8.4s-3.98-7.41-8.14-7.14c.22-1.27.29-2.6.17-3.96-.13-1.58-.49-3.09-1.05-4.48,1.82.99,3.92,1.48,6.1,1.29,6.26-.52,10.9-6.31,10.35-12.93s-6.07-11.57-12.33-11.06-10.9,6.31-10.35,12.93c.08.95.26,1.87.53,2.74-2.47-1.61-5.42-2.44-8.52-2.18-7.75.64-13.49,7.81-12.81,16.01s7.51,14.33,15.26,13.68c2.13-.18,4.11-.85,5.84-1.9,1.07,3.38,4.31,5.7,7.93,5.4Z"/>
    <path class="cls-6" d="M55.46,39.2s.17,6.97-5.79,8.09"/>
    <path class="cls-6" d="M39.49,55.46s.23,9.5-7.9,11.04"/>
    <ellipse class="cls-6" cx="28.58" cy="29.48" rx="6.67" ry="6.78" transform="translate(-2.33 2.45) rotate(-4.73)"/>
    <path class="cls-6" d="M32.7,29.41s.11,4.29-3.57,4.98"/>
    <path class="cls-6" d="M48.88,65.96s.11,4.29-3.57,4.98"/>
    <line class="cls-6" x1="15.87" y1="36.21" x2="17.24" y2="36.09"/>
    <line class="cls-6" x1="18.32" y1="37.01" x2="18.42" y2="38.23"/>
    <line class="cls-6" x1="19.06" y1="35.71" x2="20.74" y2="35.57"/>
    <line class="cls-6" x1="18.11" y1="33.56" x2="18.23" y2="35.01"/>
    <line class="cls-6" x1="52.16" y1="55.55" x2="53.47" y2="55.44"/>
    <line class="cls-6" x1="54.49" y1="56.31" x2="54.58" y2="57.47"/>
    <line class="cls-6" x1="55.19" y1="55.08" x2="56.79" y2="54.95"/>
    <line class="cls-6" x1="54.29" y1="53.03" x2="54.4" y2="54.41"/>
  </g>
  <g>
    <path class="cls-6" d="M220.39,457.84c4.22-.35,7.35-4.11,7-8.4s-3.98-7.41-8.14-7.14c.22-1.27.29-2.6.17-3.96-.13-1.58-.49-3.09-1.05-4.48,1.82.99,3.92,1.48,6.1,1.29,6.26-.52,10.9-6.31,10.35-12.93-.55-6.62-6.07-11.57-12.33-11.06s-10.9,6.31-10.35,12.93c.08.95.26,1.87.53,2.74-2.47-1.61-5.42-2.44-8.52-2.18-7.75.64-13.49,7.81-12.81,16.01.68,8.2,7.51,14.33,15.26,13.68,2.13-.18,4.11-.85,5.84-1.9,1.07,3.38,4.31,5.7,7.93,5.4Z"/>
    <path class="cls-6" d="M230.79,423.54s.17,6.97-5.79,8.09"/>
    <path class="cls-6" d="M214.82,439.8s.23,9.5-7.9,11.04"/>
    <ellipse class="cls-6" cx="203.91" cy="413.82" rx="6.67" ry="6.78" transform="translate(-33.4 18.21) rotate(-4.73)"/>
    <path class="cls-6" d="M208.03,413.75s.11,4.29-3.57,4.98"/>
    <path class="cls-6" d="M224.21,450.3s.11,4.29-3.57,4.98"/>
    <line class="cls-6" x1="191.19" y1="420.55" x2="192.57" y2="420.43"/>
    <line class="cls-6" x1="193.64" y1="421.34" x2="193.75" y2="422.57"/>
    <line class="cls-6" x1="194.38" y1="420.05" x2="196.06" y2="419.91"/>
    <line class="cls-6" x1="193.44" y1="417.9" x2="193.56" y2="419.35"/>
    <line class="cls-6" x1="227.49" y1="439.89" x2="228.79" y2="439.78"/>
    <line class="cls-6" x1="229.82" y1="440.64" x2="229.91" y2="441.81"/>
    <line class="cls-6" x1="230.52" y1="439.42" x2="232.12" y2="439.28"/>
    <line class="cls-6" x1="229.62" y1="437.37" x2="229.73" y2="438.75"/>
  </g>
  <g>
    <ellipse class="cls-6" cx="15" cy="124.95" rx="14.5" ry="13.53"/>
    <path class="cls-6" d="M16.94,115.53s7.83.85,8.45,8.84"/>
  </g>
  <g>
    <ellipse class="cls-6" cx="42.53" cy="141.11" rx="6.12" ry="5.72"/>
    <path class="cls-6" d="M43.35,137.13s3.31.36,3.57,3.73"/>
  </g>
  <g>
    <ellipse class="cls-6" cx="22.56" cy="96.44" rx="6.12" ry="5.72"/>
    <path class="cls-6" d="M23.38,92.46s3.31.36,3.57,3.73"/>
  </g>
</svg>