<?xml version="1.0" encoding="UTF-8"?>
<svg id="Laag_1" xmlns="http://www.w3.org/2000/svg" xmlns:xlink="http://www.w3.org/1999/xlink" viewBox="0 0 320.14 541.52">
  <defs>
    <style>
      .cls-1, .cls-2, .cls-3, .cls-4, .cls-5, .cls-6, .cls-7, .cls-8, .cls-9, .cls-10, .cls-11, .cls-12, .cls-13, .cls-14, .cls-15, .cls-16, .cls-17 {
        stroke-miterlimit: 10;
      }

      .cls-1, .cls-2, .cls-3, .cls-5, .cls-6, .cls-7, .cls-8, .cls-9, .cls-10, .cls-11, .cls-12, .cls-13, .cls-14, .cls-15, .cls-16, .cls-17 {
        stroke: #1d1d1b;
      }

      .cls-1, .cls-2, .cls-11, .cls-13, .cls-14, .cls-17 {
        stroke-width: .75px;
      }

      .cls-1, .cls-10, .cls-16 {
        fill: none;
      }

      .cls-2, .cls-18, .cls-5 {
        fill: #1d1d1b;
      }

      .cls-3 {
        fill: url(#Naamloos_verloop_3);
      }

      .cls-3, .cls-8, .cls-9 {
        stroke-width: 2px;
      }

      .cls-4 {
        stroke: #fff;
      }

      .cls-4, .cls-5, .cls-6, .cls-10 {
        stroke-width: .5px;
      }

      .cls-4, .cls-14 {
        fill: #fff;
      }

      .cls-6 {
        fill: #fccf9f;
      }

      .cls-7 {
        fill: #7f4112;
      }

      .cls-8 {
        fill: url(#Naamloos_verloop_3-2);
      }

      .cls-9 {
        fill: url(#Naamloos_verloop_3-3);
      }

      .cls-11 {
        fill: #92a677;
      }

      .cls-19 {
        fill: #7fc9cb;
      }

      .cls-12 {
        fill: url(#Naamloos_verloop_4);
      }

      .cls-13 {
        fill: #91a677;
      }

      .cls-15 {
        fill: #28509d;
      }

      .cls-17 {
        fill: #75b72a;
      }
    </style>
    <linearGradient id="Naamloos_verloop_3" data-name="Naamloos verloop 3" x1="66.29" y1="270.76" x2="310.43" y2="270.76" gradientUnits="userSpaceOnUse">
      <stop offset="0" stop-color="#fff"/>
      <stop offset=".09" stop-color="#e9edf5"/>
      <stop offset=".54" stop-color="#8198c6"/>
      <stop offset=".85" stop-color="#4063a9"/>
      <stop offset="1" stop-color="#274f9e"/>
    </linearGradient>
    <linearGradient id="Naamloos_verloop_3-2" data-name="Naamloos verloop 3" x1="-136.52" y1="1630.71" x2="-78.77" y2="1630.71" gradientTransform="translate(469.25 1738.05) rotate(167.78) scale(1.07 .94)" xlink:href="#Naamloos_verloop_3"/>
    <linearGradient id="Naamloos_verloop_3-3" data-name="Naamloos verloop 3" x1="662.62" y1="1782.13" x2="727.04" y2="1782.13" gradientTransform="translate(-929.59 1806.65) rotate(12.22) scale(1 -1)" xlink:href="#Naamloos_verloop_3"/>
    <linearGradient id="Naamloos_verloop_4" data-name="Naamloos verloop 4" x1="76.05" y1="523.14" x2="109.36" y2="523.14" gradientUnits="userSpaceOnUse">
      <stop offset="0" stop-color="#fff"/>
      <stop offset=".09" stop-color="#e9edf5"/>
      <stop offset=".54" stop-color="#8198c6"/>
      <stop offset=".85" stop-color="#4063a9"/>
      <stop offset="1" stop-color="#274f9e"/>
    </linearGradient>
  </defs>
  <g>
    <path class="cls-14" d="M11.86,147.87l-4.7-2.92c-.9-.56-1.25-1.71-.82-2.68l3.32-7.36c.51-1.13,1.88-1.59,2.96-.99l5.7,3.13c.99.54,1.98.51,1.5,1.52l-4.68,9.07c-.62,1.3-1.9,1.45-2.95.47h0c-.1-.1-.21-.18-.33-.25Z"/>
    <path class="cls-14" d="M5.69,143.71l-4.96,1.13c-.82,0-.03-1.24.39-1.95l6.31-12.56c.41-.68,1.02-2.71,1.45-2.04l2.17,4.86c.2.32.22.71.05,1.04l-4.45,8.93c-.18.36-.55.59-.96.59Z"/>
    <g>
      <polyline class="cls-17" points="46.14 172.93 55.67 154.74 72.85 164.63 75.53 177.87 61.04 181.67 45.97 172.61"/>
      <g>
        <polygon class="cls-1" points="12.74 152.02 61.04 181.67 75.75 178.71 72.6 164.33 55.67 154.74 21.63 134.29 12.74 152.02"/>
        <line class="cls-14" x1="106.58" y1="197.39" x2="75.75" y2="178.71"/>
      </g>
      <line class="cls-14" x1="64.07" y1="160.51" x2="59.62" y2="168.02"/>
      <line class="cls-14" x1="51.59" y1="152.59" x2="47.24" y2="159.94"/>
      <line class="cls-14" x1="37.68" y1="143.9" x2="32.38" y2="152.86"/>
      <line class="cls-14" x1="44.68" y1="148.48" x2="41.7" y2="153.51"/>
      <line class="cls-14" x1="58.89" y1="157.77" x2="55.72" y2="163.12"/>
      <line class="cls-14" x1="32.56" y1="141.1" x2="30.14" y2="145.18"/>
    </g>
  </g>
  <path class="cls-3" d="M303.39,248.44c9.47,3.95,8.4,35.21,2.62,37.83s-3.42,18.66-5.78,26.8-24.96,24.96-24.96,24.96l2.1,2.1c9.2,6.04,24.7,19.71,15.24,29.96-9.46,10.25-25.23-1.84-25.23-1.84-12.61-10.77-18.39-4.99-21.55-9.2-2.51-3.34-33.88-.38-46.66.98-2.18.23-3.18,2.81-1.76,4.48,12.31,14.45,3.81,20.34-7.81,27.12-12.61,7.36-36.79-20.5-36.79-20.5-46.25-19.97-50.98,13.66-48.35,32.06s6.13,122.19,3.15,130.34c-3.83,10.5-24.02,8.03-26.8,0-4.73-13.66-19.79-152.28-12.61-184.47,6.42-28.77,28.38-26.8,28.38-26.8-16.82-18.39-10.83-45.72-11.88-79.88s47.09-100.38,47.09-100.38c-5.78-15.24,8.41-35.74,8.41-35.74-2.63-11.04,6.83-29.96,8.41-35.74s8.93-7.36,7.54-17.87c-1.39-10.51,1.39-17.34,1.39-17.34-5.26-22.6,5.78-33.11,9.46-34.16s2.63,3.15,8.93,5.26,3.68,3.15,6.83,7.88c3.15,4.73,17.87,19.45,18.67,19.45s16.94-.19,20.75-.53c1.73-.15,17.7,5.79,21.55,2.63,2.96-2.43,38.89-21.55,38.89-21.55,0,0,8.41,1.05-3.15,25.23s-1.05,32.58,2.1,44.15-7.88,8.93-8.41,27.33c0,0,5.19,11.28,4.34,14.38,0,0,15.27,39.01,7.38,64.94-4.38,14.4-.45,21.63,3.92,25.21,5.04,4.13,8.8,9.61,10.37,15.93l4.22,16.97"/>
  <path class="cls-1" d="M207.73,72.11s-12.88-42.31-28.91-42.57"/>
  <path class="cls-1" d="M241.78,73.69s10.8-15.28,25.08-18.92"/>
  <path class="cls-1" d="M238.62,80.61s10.19-12.61,25.25-13.84"/>
  <line class="cls-1" x1="237.85" y1="72.59" x2="255.55" y2="51.97"/>
  <path class="cls-1" d="M207.73,60.49s-8.87-25.84-12.28-27.42"/>
  <path class="cls-5" d="M210.1,92.13s-5.99-13.09-12.29-16.76c-3.15-1.84-9.75-.29-13.8.94-2.77.84-5.72.98-8.52.24-1.29-.34-4.09-2.24-2.51-1.34.26,1.2,21.88-5.72,28.61-1.88,0,0,7.61,6.38,8.51,18.79Z"/>
  <path class="cls-11" d="M206.83,85.99c.6,1.17-.7,6.99-.7,6.99-26.15,6.11-22.06-16.9-22.06-16.9l8.36-1.74c.56.36,6.84-3.13,14.4,11.65Z"/>
  <path class="cls-2" d="M192.73,75.42s-2.89,12.74,1.97,15.9c4.86,3.15,6.51-12.22,6.51-12.22,0,0-3.88-6.96-8.48-3.68Z"/>
  <path class="cls-4" d="M201.21,79.1c-.45-1.45-4.67,0-4.67,0-2.36,4.07,4.1,3.66,4.1,3.66l.57-3.66Z"/>
  <path class="cls-1" d="M256.62,80.33c-5.29-1.01-11.66-4.34-15-2.16-6.28,4.1-9.42,11.79-10.75,16.43-.58,2.02-.82,3.35-.82,3.35,0,0,12.18,8.04,22.16.42,0,0,5.93-4.69,5.5-14.82"/>
  <path class="cls-5" d="M230.87,94.6s7.55-11.43,14.01-13.96c3.23-1.27,9.21,1.15,12.84,2.91,2.48,1.2,5.24,1.76,7.98,1.48,1.26-.13,4.17-1.51,2.56-.89-.42,1.09-19.74-8.58-26.63-5.96,0,0-8.09,4.89-10.75,16.43Z"/>
  <path class="cls-13" d="M234.84,89.3c-.73,1.01-.36,6.68-.36,6.68,23.7,9.57,23.22-12.67,23.22-12.67l-7.61-2.86c-.58.25-5.98-3.95-15.25,8.85Z"/>
  <path class="cls-2" d="M249.65,81.42s.85,12.41-4.18,14.66c-5.03,2.25-4.33-12.44-4.33-12.44,0,0,4.67-5.98,8.51-2.22Z"/>
  <path class="cls-4" d="M241.14,83.64c.64-1.29,4.39.68,4.39.68,1.62,4.18-4.39,2.84-4.39,2.84v-3.52Z"/>
  <path class="cls-15" d="M215.11,109.29c.23,1.02-14.43-1.31-19.7.56-4.1,1.45-7.94,13.98,8.46,15.21,3.23.24,6.41-.89,8.82-3.05l4.95-4.43"/>
  <path class="cls-15" d="M228.42,108.15c-.03,2.01,8.39-1.4,13.01,4.1.89,1.06,1.84,2.81,1.24,4.06-1.4,2.93-4.9,8.96-12.62,8.82-6.16-.11-5.93-6.34-5.93-6.34"/>
  <path class="cls-1" d="M216.56,108.29s3.53-7.71-6.15-12.54c0,0-.03-1.42-.31-3.61-.64-5.03-2.66-13.52-8.51-18.79-3.12-2.8-8.8.32-14.46.35-13.32.07-9.18,3.55-8.31,6.92,1.46,5.63,7.19,20.45,31.58,15.13"/>
  <path class="cls-1" d="M227.4,107.41s-2.87-7.49,2.1-9.46"/>
  <path class="cls-15" d="M222.1,118.84c1.31.13,2.63-.19,3.74-.91,2.1-1.37,5.64-3.72,5.8-4.36.48-1.93-2.5-6.98-8.54-6.05h-1.99c-6.04-.93-9.02,4.12-8.54,6.05.16.65,3.69,3,5.8,4.36,1.11.72,2.42,1.04,3.74.91"/>
  <path class="cls-2" d="M219.98,118.49s-.61-8.24-6.46-7.12"/>
  <path class="cls-2" d="M225.04,118.49s-.27-7.72,6.93-6.55"/>
  <path class="cls-10" d="M156.43,104.67c8.67-.82,49.4,12.32,49.4,12.32,0,0-41.91-6.83-44.67-2.63"/>
  <path class="cls-10" d="M133.7,125.92c3.22-5.92,70.42-8.35,70.42-8.35,0,0-56.87,10.29-63.96,21.05"/>
  <path class="cls-10" d="M235.53,116.23s38.19-19.27,74.28-14.36"/>
  <path class="cls-10" d="M235.53,116.24s41.84-.31,45.92,4.51"/>
  <path class="cls-10" d="M236.26,116.3s28.34-1.58,54.62,10.25"/>
  <path class="cls-10" d="M235.53,116.99s2.56.01,6.45.28c9.98.7,28.71,3.13,35.33,11.54"/>
  <path class="cls-10" d="M267.28,131.25s-27.06-13.36-32.12-13.67"/>
  <path class="cls-16" d="M221.37,119.21c.07,6.39-11.67,9.61-12.56,8.89"/>
  <path class="cls-16" d="M221.37,119.21c.73,8.89,12.14,10.15,10.32,9.6"/>
  <path class="cls-18" d="M279.32,364.73s5.26,10.36,8.65,8.67"/>
  <path class="cls-18" d="M284.98,361.09s5.9,10.01,9.18,8.11"/>
  <path class="cls-18" d="M181.37,382.53s5.62,10.17,8.95,8.36"/>
  <path class="cls-18" d="M189.62,378.37s5.03,10.48,8.45,8.86"/>
  <path class="cls-8" d="M284.06,192.9s-44.67,18.64-51.91,29.6c-7.23,10.96,2.31,21.31,8.33,26.04,6.02,4.73,21.78-14.78,16.29-15.27,0,0,3.71-.47,2.81-4.64-.72-3.32,5.51-4.9,9.53-6.47,2.06-.81,4.25-1.28,6.47-1.34l14.26-2.81s-3.81-2.35-5.46-10.22c-1.65-7.87-.32-14.22-.32-14.22"/>
  <path class="cls-9" d="M107.28,182.34s41.42,18.55,47.9,29.99c6.48,11.44-2.77,22.7-8.55,27.9-5.79,5.2-20.03-15.09-14.87-15.77,0,0-3.47-.4-2.5-4.85.77-3.55-5.04-5.05-8.76-6.61-1.91-.8-3.96-1.24-6.03-1.24l-19.61-4.99,2.79-8.13c1.99-5.78,7.49-13.42,7.49-13.42"/>
  <path class="cls-7" d="M139.87,501.22c-.11.33-.16.67-.17,1.02"/>
  <path class="cls-12" d="M76.05,505.37l8.79,6.31,10.51-6.31,13.41,6.31s4.72,30.63-12.49,29.18-17.02-7.91-20.22-35.48Z"/>
  <g>
    <path class="cls-6" d="M169.49,66.37l18.42-18.82c.93-.95,1.51-2.81,1.27-4.12-.38-2.04-1.63-4-4.17-5.27-.48-.24-1.09-.37-1.73-.43-2.13-.21-4.23.6-5.71,2.16l-17.01,17.97s-3.31,2.78-.9,5.73c1.16,1.42,2.69,2.77,4.21,3.61,1.84,1.01,4.14.67,5.61-.83Z"/>
    <path class="cls-6" d="M159.47,46.08l19,20.51c.91.98,2.73,1.65,4.06,1.47,2.05-.28,4.07-1.43,5.47-3.91.26-.46.42-1.07.52-1.71.31-2.12-.4-4.26-1.88-5.8l-15.8-16.48c-1.39-1.45-3.19-2.46-5.17-2.77-1.34-.21-2.82-.12-4.02.78-3.07,2.27-3.76,5.61-2.17,7.93Z"/>
    <path class="cls-6" d="M174.38,47.71c1.43-1.52,2.66,1.25,5.13,3.24.31.25.21.77-.09,1.04l-5.8,5.37c-.57.54-1.46.52-2-.05l-2.85-3c-.4-.42-.36-1.09.09-1.46"/>
    <circle class="cls-6" cx="182.36" cy="40.21" r=".38"/>
    <circle class="cls-6" cx="186.59" cy="43.03" r=".38"/>
    <circle class="cls-6" cx="178.3" cy="42.86" r=".38"/>
    <circle class="cls-6" cx="181.2" cy="44.83" r=".38"/>
    <circle class="cls-6" cx="184.14" cy="47.27" r=".38"/>
    <circle class="cls-6" cx="165.51" cy="64.89" r=".38"/>
    <circle class="cls-6" cx="161.87" cy="61.34" r=".38"/>
    <circle class="cls-6" cx="169.98" cy="63.03" r=".38"/>
    <circle class="cls-6" cx="167.49" cy="60.56" r=".38"/>
    <circle class="cls-6" cx="165.04" cy="57.62" r=".38"/>
  </g>
  <g>
    <path class="cls-6" d="M112.19,209.43l18.78-7.5c.95-.38,1.93-1.5,2.17-2.5.37-1.55.1-3.31-1.29-4.99-.26-.31-.65-.6-1.08-.84-1.43-.81-3.16-.89-4.68-.26l-17.52,7.35s-3.19.92-2.41,3.75c.37,1.35,1.03,2.78,1.84,3.84.98,1.28,2.7,1.76,4.2,1.16Z"/>
    <path class="cls-6" d="M111.45,192.08l6.98,20.3c.33.97,1.41,2.01,2.39,2.29,1.53.44,3.31.26,5.05-1.05.33-.24.63-.62.89-1.04.88-1.39,1.04-3.11.48-4.66l-5.98-16.48c-.53-1.45-1.48-2.72-2.77-3.55-.88-.57-1.94-.96-3.07-.7-2.86.64-4.38,2.77-3.98,4.89Z"/>
    <path class="cls-6" d="M121.42,197.85c1.48-.62,1.48,1.7,2.6,3.87.14.27-.09.61-.38.71l-5.74,1.97c-.56.2-1.19-.09-1.39-.66l-1.07-2.99c-.15-.42.08-.88.51-1"/>
    <circle class="cls-6" cx="129.34" cy="195.06" r=".29"/>
    <circle class="cls-6" cx="131.43" cy="198.35" r=".29"/>
    <circle class="cls-6" cx="125.67" cy="195.66" r=".29"/>
    <circle class="cls-6" cx="127.1" cy="197.94" r=".29"/>
    <circle class="cls-6" cx="128.41" cy="200.57" r=".29"/>
    <circle class="cls-6" cx="109.86" cy="207.16" r=".29"/>
    <circle class="cls-6" cx="108.4" cy="203.54" r=".29"/>
    <circle class="cls-6" cx="113.57" cy="207.24" r=".29"/>
    <circle class="cls-6" cx="112.59" cy="204.74" r=".29"/>
    <circle class="cls-6" cx="111.78" cy="201.91" r=".29"/>
  </g>
  <g>
    <path class="cls-6" d="M83.79,515.65l21.29-8.5c1.08-.43,2.19-1.71,2.46-2.84.42-1.76.11-3.76-1.47-5.66-.29-.36-.74-.68-1.23-.95-1.62-.92-3.58-1.01-5.3-.29l-19.86,8.33s-3.61,1.04-2.73,4.25c.42,1.54,1.16,3.15,2.08,4.36,1.11,1.46,3.06,1.99,4.76,1.31Z"/>
    <path class="cls-6" d="M82.95,495.98l7.91,23.01c.38,1.1,1.6,2.27,2.71,2.6,1.73.5,3.75.29,5.73-1.19.37-.28.71-.7,1.01-1.18.99-1.58,1.18-3.53.55-5.28l-6.78-18.68c-.6-1.64-1.67-3.08-3.14-4.02-1-.64-2.2-1.08-3.48-.8-3.24.73-4.96,3.14-4.51,5.55Z"/>
    <path class="cls-6" d="M94.25,502.52c1.68-.71,1.67,1.93,2.95,4.38.16.31-.1.69-.43.8l-6.5,2.24c-.64.23-1.35-.1-1.58-.74l-1.22-3.39c-.17-.47.1-.99.58-1.13"/>
    <circle class="cls-6" cx="103.23" cy="499.36" r=".33"/>
    <circle class="cls-6" cx="105.61" cy="503.09" r=".33"/>
    <circle class="cls-6" cx="99.07" cy="500.04" r=".33"/>
    <circle class="cls-6" cx="100.69" cy="502.63" r=".33"/>
    <circle class="cls-6" cx="102.17" cy="505.61" r=".33"/>
    <circle class="cls-6" cx="81.14" cy="513.08" r=".33"/>
    <circle class="cls-6" cx="79.49" cy="508.97" r=".33"/>
    <circle class="cls-6" cx="85.35" cy="513.17" r=".33"/>
    <circle class="cls-6" cx="84.24" cy="510.33" r=".33"/>
    <circle class="cls-6" cx="83.32" cy="507.13" r=".33"/>
  </g>
  <path class="cls-19" d="M68.26,59.35v-20.89h25.49v20.54h21.24v25.31h-21.24v21.42h-24.96v-20.36h-21.6v-25.31s20.62-.27,21.07-.71Z"/>
</svg>