<?xml version="1.0" encoding="UTF-8"?>
<svg id="Laag_1" xmlns="http://www.w3.org/2000/svg" xmlns:xlink="http://www.w3.org/1999/xlink" viewBox="0 0 116.44 107.36">
  <defs>
    <style>
      .cls-1 {
        fill: url(#Naamloos_verloop_5);
      }

      .cls-1, .cls-2, .cls-3, .cls-4, .cls-5, .cls-6, .cls-7 {
        stroke: #1d1d1b;
        stroke-miterlimit: 10;
      }

      .cls-2 {
        fill: url(#Naamloos_verloop_5-3);
      }

      .cls-3 {
        fill: url(#Naamloos_verloop_4-2);
      }

      .cls-4 {
        fill: url(#Naamloos_verloop_5-4);
      }

      .cls-5 {
        fill: url(#Naamloos_verloop_5-2);
      }

      .cls-6 {
        fill: url(#Naamloos_verloop_5-5);
      }

      .cls-7 {
        fill: url(#Naamloos_verloop_4);
      }
    </style>
    <linearGradient id="Naamloos_verloop_4" data-name="Naamloos verloop 4" x1=".5" y1="53.55" x2="58.12" y2="53.55" gradientUnits="userSpaceOnUse">
      <stop offset="0" stop-color="#fff"/>
      <stop offset=".09" stop-color="#e9edf5"/>
      <stop offset=".54" stop-color="#8198c6"/>
      <stop offset=".85" stop-color="#4063a9"/>
      <stop offset="1" stop-color="#274f9e"/>
    </linearGradient>
    <linearGradient id="Naamloos_verloop_4-2" data-name="Naamloos verloop 4" x1="562.82" y1="53.81" x2="623.78" y2="53.81" gradientTransform="translate(678.75) rotate(-180) scale(1 -1)" xlink:href="#Naamloos_verloop_4"/>
    <linearGradient id="Naamloos_verloop_5" data-name="Naamloos verloop 5" x1="781.97" y1="94.51" x2="804.04" y2="94.51" gradientTransform="translate(-769.57 -39.56)" gradientUnits="userSpaceOnUse">
      <stop offset="0" stop-color="#fff"/>
      <stop offset=".53" stop-color="#f3deec"/>
      <stop offset="1" stop-color="#eac5df"/>
    </linearGradient>
    <linearGradient id="Naamloos_verloop_5-2" data-name="Naamloos verloop 5" x1="502.57" y1="-37.53" x2="524.65" y2="-37.53" gradientTransform="translate(-475.06 60.17)" xlink:href="#Naamloos_verloop_5"/>
    <linearGradient id="Naamloos_verloop_5-3" data-name="Naamloos verloop 5" x1="1023.81" y1="178.12" x2="1045.88" y2="178.12" gradientTransform="translate(254.25 1058.79) rotate(-90) scale(1 -1)" xlink:href="#Naamloos_verloop_5"/>
    <linearGradient id="Naamloos_verloop_5-4" data-name="Naamloos verloop 5" x1="1211.45" y1="457.98" x2="1233.53" y2="457.98" gradientTransform="translate(550.65 1279.29) rotate(-90) scale(1 -1)" xlink:href="#Naamloos_verloop_5"/>
    <linearGradient id="Naamloos_verloop_5-5" data-name="Naamloos verloop 5" x1="32.67" y1="68.11" x2="82.66" y2="68.11" gradientTransform="matrix(1,0,0,1,0,0)" xlink:href="#Naamloos_verloop_5"/>
  </defs>
  <g>
    <path class="cls-7" d="M57.6,106.59s-33.11-.53-39.68-21.28c-6.19-19.57-12.85-4.35-17.12-30.93-.92-5.74.25-11.69,3.56-16.46,2.51-3.62,6.42-6.99,12.51-8.05,0,0-.26-43.36,41.26-24.7"/>
    <path class="cls-3" d="M57.86,5.43c41.52-18.66,41.26,24.7,41.26,24.7,14.98,2.63,16.82,19.18,16.82,19.18-4.2,33.9-11.3,15.5-17.87,36.26s-39.68,21.28-39.68,21.28l-3.42-.79"/>
  </g>
  <ellipse class="cls-1" cx="23.44" cy="54.96" rx="11.04" ry="15.9" transform="translate(-29.87 27.97) rotate(-40.05)"/>
  <ellipse class="cls-5" cx="38.55" cy="22.64" rx="11.04" ry="15.9" transform="translate(-5.71 16.35) rotate(-22.34)"/>
  <ellipse class="cls-2" cx="76.12" cy="23.95" rx="15.9" ry="11.04" transform="translate(25.03 85.26) rotate(-67.66)"/>
  <ellipse class="cls-4" cx="92.68" cy="56.8" rx="15.9" ry="11.04" transform="translate(-10.44 91.19) rotate(-49.95)"/>
  <path class="cls-6" d="M75.4,67.83c-2.15-1.9-3.79-4.34-4.57-7.11-.31-1.11-.26-2.27-.43-3.33-.88-5.52-6.43-10.82-12.55-10.88l-.18-.08c-5.87.47-11.9,5.64-12.73,10.89-.17,1.06-.12,2.22-.43,3.33-.78,2.76-2.42,5.21-4.57,7.11-2.76,2.44-7.26,7.35-7.26,13.48,0,8.85,12,8.93,14.19,8.23,1.93-.62,9.93-2.19,11.79-2.55v.09s7.62,1.84,9.81,2.54c2.19.7,14.19.61,14.19-8.23,0-6.13-4.5-11.04-7.26-13.48Z"/>
</svg>